<mxfile host="app.diagrams.net" modified="2022-07-03T11:38:36.598Z" agent="5.0 (Macintosh; Intel Mac OS X 10_15_7) AppleWebKit/537.36 (KHTML, like Gecko) Chrome/103.0.0.0 Safari/537.36" etag="XOnKD-ddOkA1v0fSLsrf" version="20.0.4" type="github">
  <diagram id="iq7mHcGML3vojDJw0PEu" name="Page-1">
    <mxGraphModel dx="1234" dy="651" grid="1" gridSize="10" guides="1" tooltips="1" connect="1" arrows="1" fold="1" page="1" pageScale="1" pageWidth="827" pageHeight="1169" math="0" shadow="0">
      <root>
        <mxCell id="0" />
        <mxCell id="1" parent="0" />
        <mxCell id="EbPt4xti_P1VAYiJ_G2H-10" style="edgeStyle=orthogonalEdgeStyle;rounded=0;orthogonalLoop=1;jettySize=auto;html=1;exitX=1;exitY=0.5;exitDx=0;exitDy=0;exitPerimeter=0;entryX=0;entryY=0.5;entryDx=0;entryDy=0;entryPerimeter=0;strokeColor=#B3B3B3;" edge="1" parent="1" source="EbPt4xti_P1VAYiJ_G2H-3" target="EbPt4xti_P1VAYiJ_G2H-5">
          <mxGeometry relative="1" as="geometry" />
        </mxCell>
        <mxCell id="EbPt4xti_P1VAYiJ_G2H-3" value="" style="sketch=0;points=[[0,0,0],[0.25,0,0],[0.5,0,0],[0.75,0,0],[1,0,0],[0,1,0],[0.25,1,0],[0.5,1,0],[0.75,1,0],[1,1,0],[0,0.25,0],[0,0.5,0],[0,0.75,0],[1,0.25,0],[1,0.5,0],[1,0.75,0]];outlineConnect=0;fontColor=#232F3E;gradientColor=#945DF2;gradientDirection=north;fillColor=#5A30B5;strokeColor=#ffffff;dashed=0;verticalLabelPosition=bottom;verticalAlign=top;align=center;html=1;fontSize=12;fontStyle=0;aspect=fixed;shape=mxgraph.aws4.resourceIcon;resIcon=mxgraph.aws4.api_gateway;" vertex="1" parent="1">
          <mxGeometry x="370" y="231" width="78" height="78" as="geometry" />
        </mxCell>
        <mxCell id="EbPt4xti_P1VAYiJ_G2H-19" style="edgeStyle=orthogonalEdgeStyle;rounded=0;orthogonalLoop=1;jettySize=auto;html=1;entryX=0.5;entryY=0;entryDx=0;entryDy=0;strokeColor=#B3B3B3;" edge="1" parent="1" source="EbPt4xti_P1VAYiJ_G2H-5" target="EbPt4xti_P1VAYiJ_G2H-9">
          <mxGeometry relative="1" as="geometry" />
        </mxCell>
        <mxCell id="EbPt4xti_P1VAYiJ_G2H-5" value="" style="sketch=0;points=[[0,0,0],[0.25,0,0],[0.5,0,0],[0.75,0,0],[1,0,0],[0,1,0],[0.25,1,0],[0.5,1,0],[0.75,1,0],[1,1,0],[0,0.25,0],[0,0.5,0],[0,0.75,0],[1,0.25,0],[1,0.5,0],[1,0.75,0]];outlineConnect=0;fontColor=#232F3E;gradientColor=#F78E04;gradientDirection=north;fillColor=#D05C17;strokeColor=#ffffff;dashed=0;verticalLabelPosition=bottom;verticalAlign=top;align=center;html=1;fontSize=12;fontStyle=0;aspect=fixed;shape=mxgraph.aws4.resourceIcon;resIcon=mxgraph.aws4.lambda;" vertex="1" parent="1">
          <mxGeometry x="524" y="230" width="80" height="80" as="geometry" />
        </mxCell>
        <mxCell id="EbPt4xti_P1VAYiJ_G2H-9" value="" style="shape=image;verticalLabelPosition=bottom;labelBackgroundColor=default;verticalAlign=top;aspect=fixed;imageAspect=0;image=data:image/png,iVBORw0KGgoAAAANSUhEUgAAAgAAAAIACAYAAAD0eNT6AAAABGdBTUEAALGPC/xhBQAAQABJREFUeAHsnQWYHMe1tk/3wM6ilrS7YplkZmZGGSSZmSl2HDvg5E8u5N5wnOQ6TKaYQbZkZmbGmEG2mFfa1eLA/52eHWm8NLAzPQ1fPc/xzHZXV516a6w6XVXnlAgTCZAACZAACZAACZAACZAACZAACZAACZAACZAACZAACZAACZAACZAACZAACZAACZAACZAACZAACZAACZAACZAACZAACZAACZAACZAACZAACZAACZAACZAACZAACZAACZAACZAACZAACZAACZAACZAACZAACZAACZAACZAACZAACZAACZAACZAACZAACZAACZAACZAACZAACZAACZAACZAACZAACZAACZAACZAACZAACZAACZAACZAACZAACZAACZAACZAACZAACZAACZAACZAACZAACZAACZAACZAACZAACZAACZAACZAACZAACZAACZAACZAACZAACZAACZAACZAACZAACZAACZAACZAACZAACZAACZAACZAACZAACZAACZAACZAACZAACZAACZAACZAACZAACZAACZAACZAACZAACZAACZAACZAACZAACZAACZAACZAACZAACZAACZAACZAACZAACZAACZAACZAACZAACZAACZAACZAACZAACZAACZAACZAACZAACZAACZAACZAACZAACZAACZAACZAACZAACZAACZAACZAACZAACZAACZAACZAACZCAZwkYnm0ZG0YCPiSQSCSq0OyNIFP6ZAw+qyF6fajPOO61QdqH+NR7X0E+7pPPDMPowXcmEiABFxOgAeDizqPq/iWAgb4Rrd8FsjEkNdjr51hIsZMaDHMgKYNAPz+EvATDYA0+mUiABFxAgAaACzqJKpIABvwGUNgbsg9kX8jmEKf9/xuFTq9CnoI8CXkeBkEHPplIgAQcSMBp/4A4EBFVIgH7CWDAr0Ot+6TJlvjutv9fe6HzK5Cn+uQ5GARd+M5EAiTgAAJu+wfFAcioAgkUhwAG/QhKPhxyCuRQSBjipbQajZkJuRHyNIwBXUpgIgESKBEBGgAlAs9qSUAJYNDX/wd1al8H/WMgoyB+SPPQyFsgN8IQeMcPDWYbScBpBGgAOK1HqI8vCGDg3wINPRVyEmS8Lxo9dCPfxS2dFbgZxoAaBkwkQAI2EKABYANkVkECSgCDvk7pz4B8A7InhOnrBGL4827IXyBPwBhIfP02/yIBEigkARoAhaTJskhgEAIY+Cfj8rl9MnqQLLw0kMCnuPRnyPUwBFYMvM0rJEACIyVAA2CkBPk8CQxCAIO+icsHQS6E6MY+/ZspdwLqNXAz5K8wBF7L/XE+QQIkMBQBGgBDkeF1EsiDAAZ+DdBzBkSn+deDMBWOwBso6k+Q22AMML5A4biyJJ8SoAHg045nswtLAAP/zihRB/3jIWWFLZ2l9SPQir+vhfwdhsBH/e7xTxIggSwJ0ADIEhSzkUB/Ahj0K3HtBMjFkG363+ffthB4DLXopsF7YQxEbamRlZCARwjQAPBIR7IZ9hHAwL8pajsfcgbEL377aKqj0wJo93fI1TAE5jtaUypHAg4hQAPAIR1BNZxNAIN+EBoeBdFNffs7W1tfa6ezALMhf4U8CWOAroS+/jmw8cMRoAEwHB3e8z0BDPzjAOEciL7x69G6TO4hoKcU6vKAuhKudI/a1JQE7CFAA8AezqzFRQQw6Ov/F/tCdFPfNEgAwuReAp1QXV0J/wJDQD0JmEiABECABgB/BiTQRwADfy2+nga5CDKl7zI/vEVAYwmoK+HtMAbUMGAiAd8SoAHg265nw1MEMPBvi+/6tn8ypDx1nZ+eJqBLAtdA/gFDQJcKmEjAdwRoAPiuy9lgJYBBX4/ePQ6ib/s7QZj8SUA3CT4K0U2D98EYoCuhP38Hvmw1DQBfdrt/G42Bf0O0/jzI2ZB6/5JgywchoO6DKVdCdStkIgFPE6AB4OnuZeOUAAZ93cR3GESn+Q+G8HcPCExDEtBZgFkQ3TT41JC5eIMEXE6A/xC6vAOp/tAEMPA34+5ZEPXdnzB0Tt4hgSEJaKhhPZXwBhgDrUPm4g0ScCEBGgAu7DSqPDwBDPx7IIe+7R8DCQ2fm3dJICsCHch1E0RPJXwzqyeYiQQcToAGgMM7iOplRwCDfjVyngLRTX2bZ/cUc5FAXgRewVM6K6CuhHpcMRMJuJIADQBXdhuVThHAwL8lvl8AUf/9qtR1fpKADQRWoA51JdRTCT+1oT5WQQIFJUADoKA4WZgdBDDoh1HPDIhO8+9pR52sgwSGIaCuhI9ANOzw/TAGYsPk5S0ScAwBGgCO6QoqkokABv5JyHNunzRlys/7UUn0LJBE95eQryQRwx62GJay4x2SgOh369MwxDArRCDWZ0C/V4oRrBOjbFJSQi3AaRJpZgLzkOVvkGtgCCzMnJ05SKB0BGgAlI49a86CAAZ9/Y0eBNG3/cMhHIUAYUCKt0t8zZuQNyTR9VlywNfBP6EebSNPhhkSIzwBxsBEMSIbwT7YHrIVHCo1nhLTIAR6ce0uiG4afHqQ+7xEAiUnQAOg5F1ABQYjgIG/AdfPhKgL3/qD5fH1tfgaa7CPt7+Gz9cl0fkRBnt7Z54NA0ZBxeZiVu0AY0BlaxgEZb7uliEa/wGu6/KAuhKuGiIPL5OA7QRoANiOnBUORwAD/064r2/7J0A4mqTDSvRKvO1Zia18AJ/PYfq+J/1uyb8bZrmYo/aTQN1hMAp2hj6crOnXKWvwt7oS/g2GAF0J+8Hhn/YToAFgP3PW2I8ABn0sOsuJEHXh04N5mNIIJDCtH2u9H/IY1vHb0u4496sRapBA7cGQw8Qo38y5ipZOsxdRtc4KzIQxQFfC0vWDr2umAeDr7i9t4zHwbwINzofoVP+o0mrjsNox0FuD/rJbJY4NfG5OZvkUCTSeDGPgQO4ZGNiRy3HpaoieSvjZwNu8QgLFI0ADoHhsWfIgBDDoB3H5SIhO8+8/SBZfX0p0fSKx5Xdgmv8+TPF768XQCFRLoH46ZBq2Ckz2dT8P0nh1JXwIoqcSPgBjwN4NHYMoxEveJ0ADwPt97IgWYuAfC0XUhe88iH5nShFI9Eh81RMSXXYzPPTeS1319GegenfMChwrJj5F9KwmpjQCc/H9b5CrYQgsTrvOryRQUAI0AAqKk4X1J4CBf19c07f9aRB9+2fqI5DomY83/dl4479TElF/njNjhJok2HgCNg7CwzPYyN/G1wmoK+GdED2V8Nmv3+JfJDByAjQARs6QJfQjgEG/Fpc0NK8O/Bv3u+3zPxMSb3/JmuaPr35ajyr2OY9k8w0jKGbtQRJsOA6uhYgvwNSfwPu4oOcP3AhjYHX/m/ybBPIhQAMgH2p8ZlACGMy2ww2Ny38ypGLQTH69iCh8uq4f0019CNDDNDQBM7I+lgdOwqbBQ+BJyJ9RP1LqSngDRF0J3+53j3+SQE4EaADkhIuZ+xPAoK+h4I6F6Nv+Lv3v+/3vROf7yU19rQ86zm/f6X1jBCqwNHCUtXHQiGzodHVLod/zqFQ3DaorYXcpFGCd7iZAA8Dd/Vcy7THwb4DK1YXvLIhG7WNKEUh0wYXvUbztY1MfIvQxjZxAoGqn5KbBmr1RGLeS9CO6DH+rK6GeSvhFv3v8kwSGJEADYEg0vNGfAAZ9De12GETf9jE/K/z9AEIq6aE7sRWzLHFLwJ6U7m751ABDuk8gUAdP0lCzW9S2S884KlJXQg0w9CCMAf2biQSGJMB/wIdEwxspAhj4m/D9bIiu709MXeenEohbYXljy+C736Yzskx2EDCMQDLsMIwBPZiIaQCBL3FFXQn1VMIlA+7yAgmAAA0A/gyGJICBfw/c1MN4joGEh8zoxxvR5djUd69El9+GI3fpql3Kn4CJEwqtTYM4gwCHEJRSFSfWrQdGzIToqYTPOVFB6lQ6AjQASsfekTVj0K+GYrqLX+Pyb+FIJUuoVKLjHQz6t0sca/wJHM7D5BwChhnB0sAREmg4FqcUc9PgID2jUaZ0eUBdCd1xqMQgjeClwhGgAVA4lq4uCQO/Dvb6tn8qRI0AphSBeAc29T2c3NTXxXDtKSxO/jQrtpTg6JPErNkP85whJ6taCt3aUam6EuqswLulUIB1OoMADQBn9ENJtMCgr9P60yG6qW+vkijh4EoT3Z9bUfpiK+/BKXzqfs3kNgJGsBYzAsckzx8IMQL1IP2nywI6K3AnjAFdLmDyEQEaAD7q7FRTMfDrRj6NyX8OhFupU2Csz6jEVz+Dt/3bJdb+ytfu8A/3EjAME7MBe8EYOB7bBHZCQ/hPX7/eXIq/r4LoqYRz+t3jnx4lwP8LPNqx/ZuFQV/7+iCITvMfDglAmFIEepdgU9/dWN+/QxK9y1JX+elBAmZ4HDYN9p0/EOAp1P26WF0HH4BogKGHYAzo30weJUADwKMdm2oWBn4N0nMGRAf+DSBMaQQSa96wdvLraXyJBE9gTUPj+a+GGUa44cMwK4DzB8o38Xx782jgHDyTciXUGQImjxGgAeCxDk01BwO/znPq2v7xEA3Xy5QiEG/H2/4DWN9HXP6uOamr/PQxAbNiUxxGiE2Dow7A6kCZj0kM2nTdG3AHRE8lfGHQHLzoSgI0AFzZbYMrjUG/AndOgKgLnx7Mw5RGINH1cd+mvvsQl78z7Q6/kkCSgBGoxozADGwanCFGeAKxDCTwDi7ppsGbYAyoNwGTiwnQAHBx56VUx8CvR+5qlL4zIHoUL1OKAHz146ufsNb24+1vpK7ykwSGJYDBTczq3a3lAbN6N+TVKNhMaQQ0jsD1ED2VUOMLMLmQAA0AF3aaqoxBP4gPBES31vb3xyf7EhBSKdG7MBmXf/mdkoiuTF3mJwnkTMAIt6w7fyBYn/PzPnjgGbRRNw3eBWOAroQu6nAOGi7qLFUVA/9YfKj7nrrxjYMwpRGIt7+MaX5E6lv9NFhxA3MaGn4dIQEDAYXM2oNhDCDSIAINMQ0gsARXUq6EXw64ywuOI0ADwHFdMrhCGPj3xR3d1DcNom//TCkCsVXY1HcfBv7bJN49L3WVnyRQNAJm+UZYHjgRXgQHY3WgvGj1uLRgtbzvh+hegUcwK0BL3KEdSQPAoR2jamHQVyfl0yA68NNPCRDSU6LzQ+ttP9b6IDb1daff4ncSsIWAEajChsGjkpsGy9azpU6XVfI59FVXwmthCDDAhsM6jwaAwzpE1cHAvy0+1G9fD+XRnf1MKQKJbomvekyiy26ReMf7qav8JIGSEwhU75zcNIiIg4yzNaA71EK/HaLnD7w44C4vlIQADYCSYB9YKQZ9dT4+DqID/64Dc/j7SqJnLjb13WVt7EtEV/sbBlvvaAJGaLS1T0BnBnAikaN1LZFyb6PelCshD9koUSdotTQASghfq8bAvz4+zoecBWmEMK0lEJd42wvJTX1tzyurtXf4hQScTsAwgggstH9y02Alw3IM0l9qyasroc4KcDpvEEDFvkQDoNiEBykfA5mJy4dBdG0fu4joZAwG61JsJd70++Ly9yxcd53fSMClBMzIelge0PMHDsX/7VUubUVR1X4apeuswCwYA71FrYmFryVAA2AtiuJ/wcDfhFr0TV+D9kwqfo3uqiHR8W4yYM+qh7Gpj/8GuKv3qG02BAx4DATqj4AcLUZko2we8VuexWjwPyF6KuFcvzXe7vbSALCBOAb+3VGNvu0fAwnbUKV7qkh0wYXvIUzzIy5/58fu0ZuaksAICZhV21vLA2bNfliMpWdvP5x6Mtd9EA0wpK6EXP/rB6gQf9IAKATFQcrAoK/zfKdAdFPfVoNk8fWlRPcXfZv67pZErN3XLNh4fxMwEF0w0HC0BOuni4Ra/A1j8NZ/hsspV8Llg2fh1XwI0ADIh9owz2Dg3xy3ddBX//3qYbL68FYMEfqeSfrut73sw/azySQwNAHDMMWs2SfpSli109AZ/XunC01XV0I9lZD/gBTgd0ADoAAQMeiHUMwMiE7zqxMwUzqB6NK+TX0zJdG7JP0Ov5MACQxCwCybCEPgeGwanIqQAjWD5PD9pTdBQDcN3gJjgK6Eef4caADkCU4fw8Cv54VqTP5zIc0QpjQCiTVv9G3qexysoml3+JUESCAbAoYZsTwHAg3HYdPgxtk84rc8q9Dgf0H0VMIP/Nb4kbaXBkCOBDHoK7MDIfq2fzgkAGFKEYivEQ3NG1uGTX1dGgWUiQRIoBAEzIrNJdh4ImILHIBNg9xLPAjTJ3FNNw3OhjFAN6JBAPW/RAOgP5Eh/sbAX49bZ0LUhW/DIbL59nKi6xNM899pHcqTiHX4lgMbTgLFJmAER1lnDwSwadAIjy92dW4sX4OHpE4l5Olgw/QgDYBh4OgtDPw74kPf9k+ARCBMKQKY1o+vfhLT/Dh+t/311FV+kgAJ2EAAb7liVu9h7RUwqzV6OP8574ddXQnvhehegcfAi66E/QDxF9MPiP6JQb8cHydCdODfHsKUTqB3kURXzMJu/jslEV2RfoffSYAESkDACI9FTIHjMDNwJBYla0uggeOr/AQaqivhdTAE+I9WX3fRAEj73WLgn4I/dYr/DEgdhCmNQLz9lWRc/tVPw0hS45qJBEjASQQMM4w9AgdhrwA2DZZv4STVnKKLuhLeCtHzB15xilKl0sP3BgAGfd3EB7PZetvfH5++Z/K1H2OszVrXjy2/TeLdX33tFv8gARJwLgGzfGMJNOL8gVocN2Jw9XKQntJ1S900qK6Evty45NvBDgP/GHS8uu+pcCcNIKSnRNdHyYA9Kx9EXH41mplIgATcSMAIVGNp4Kjk+QNlPIJkkD5sxbV/QXRW4KNB7nv2ku8MAAz8+6A3dW0fcTeFAbgBYW1K9Eh81WMSVRe+jvfWXuYXEiABbxAIYLOgxhQwa/ZEg/RQUqZ+BJ7A37pp8G4YA54PXuILAwCDfg069HSIhujdFMKURiDRM78vLv8sbOpTY5iJBEjAywSMUJN1EFGgfhpegxq83NR82/YlHvw/yNUwBDx7WImnDQAM/Dq1fylEo/UxLj8grEsJibe9mNzU1/YcNvXF193iNxIgAV8QMIyQmLX7Wx4ERsU2vmhzjo1cify6T+CPMAQW5fis47N70gDAwL8lyH8Xoq58Icf3gp0Kxlrxtn9PcuDvWWBnzayLBEjAwQTMyAbYNIjzB2oPw+pAhYM1LYlq3aj1RsgVXton4CkDAAP/vuigyyGHQJjSCCQ6/421fezkX/UINvX1pN3hVxIgARJYR8AIVOL8gcOxV+AYMco2WHeD35SA+j9rlMEfe2FGwBMGAAb+rdEhV0A0Rj9TikCiC3H5H0Zcfgz8nR+mrvKTBEiABLIiEKjaIblpcNQ+yM8902nQdF+Ajjm/hSHg2tMIXW0AYOAfhw74KeQ0CLe0AoKmRM9XmOKfaR3Bm4AfPxMJkAAJjISAEWq0zh8I1uPUc2wgZFpLQM8d+C/ItTAEXBcdzZUGAAZ+3dD3fci3IRq2l0niiMv/bHJtv/0lDWdMJiRAAiRQUAKGEYAL4b7YK3CsmJV6TApTH4F38Hk2jIDX3ETEdQYABrbjAfgPEJqh+kuLLseb/mzE5p+JN//FeoWJBEiABIpOwERQIWvTIPYLiFlV9PpcUIHOAPwO8l8wBFwRPc01BgAGfo3cp+4YR0F8nxIdbyVP4Wt9HG/7PPra9z8IAiCBEhEwzHJsGjwsuWkwsnGJtHBUtXrwkM4GPOsorQZRxhUGAAb/M6G7Wla1g7TBP5findjUdz829eH43a5P/dNutpQESMAVBMzKra2YAuaoA3D+gK89sHUNViMK/gCGgGMDCTnaAMDAr4Gr/wE5COLblOj+PLmpb+W9koi5dsOpb/uPDScBvxEwgnXYNDgdswJHww7QyVvfJp0NOAZGgO4RcFxyrAGAwV9j9V8LGeU4arYoFIXP/lPWpr5Yu6v2ldhCh5WQAAk4n4BhmGJW75ncNFi1KxR27JBTTJidKPwiGAE6njkqOa43MPCrs+kvId9xFCm7lIkuxdr+XdjYd6ckepfZVSvrIQESIIGiEjDLxlsxBQJ1R4gEfPledw0AXwxDQA0CRyRHGQAY/NWv/zbI7o6gY6MS8TWvYm3/DrjyPYVNfZ4/hMpGsqyKBEjASQQMswzhhg+2jAGjfDMnqWaHLm+jEl0ScMQmLscYABj89weYWyCj7egFR9QRb5fYyvuSvvtdcxyhEpUgARIgAbsImBWbwRDQ8wewzcsos6vaUtezCgrMgBHwRKkVcYQBgMH/EoD4P4gvovkluj7GoH8HBv8HEJffMbNBpf4tsn4SIAGfEjCCNXAlPArGAM4fCE/wAwU9kOUMGAH60luyVFIDAAO/1v8ryPdKRsCuiuGrH1/1WNJ3f43OAjGRAAmQAAmkE8CAiJhCu8IQQKTBmj1xy9PvhAk08HK0+TfpDOz8XjIDAIN/GA3VXZEn2dlg2+vqXYhB/05s6psliehK26tnhSRAAiTgRgJGeAxiChwDd8Jp2DRY58YmZKuzRra9DIZAPNsHCpWvJAYABv8aNGAWZL9CNcRp5cTbX0hu6mt7Fpv6bO9Xp+GgPiRAAiSQFwHDDIkGFgo2HCdGxdZ5leGCh2ZCx5NgBPTaqavtBgAG/xY08CGI93oythrr+vdY6/vx7rl29iPrIgESIAHPEzDLp1jeAxp6WIyI19qrL8XHwQiwzQ3MVgMAg7/u8H8K4infj0Tn+8mAPa0PY1NfN5rHRAIkQAIkUCwCRqAKqwJHJDcNlq1XrGpKUa66wZ8MI8CWo4VtMwAw+NejYU9CtioF1YLXmehGXP5Hki58Hf8uePEskARIgARIIDOBQNVOyUiDNfsgcyDzA87PcQNUVA+Boq8d22IAYPAfhQY9Dtne+eyH1zDRMxeD/kxrqj8RVXdOJhIgARIggVITMEJN2CcwwzqDQIKuDydzFXieByNAPQWKlopuAGDwr4b2j0B2KVoril5wQuLYzGedwtf+Ijb1FbVPit4aVkACJEACXiVgGEFsGtwHywPHi1np6nfOP8IA0Bg5RUtFNQAwUGpoJx389ypaC4pZcGwl3Pdmw41vpiR6FhazJpZNAiRAAiRQYAJmZH0rpkCg7nCEFKgscOm2FPctGAHqJliUVGwD4CZo7To//0THOxj0b7MC9yTitnplFKWTWSgJkAAJ+JmAYZZj0+BUyxgwIhu5CYVuBjwcRoB6zhU8Fc0AwNv/f0DbnxRc42IVmOiyQvPGlt8u8c6Pi1ULyyUBEiABEighAbNyWyumgDlqf7gS6uGzjk+roeGuMALeL7SmRTEAMPgfA0VvhxSl/EJCSHTPsfz29VCeRKytkEWzLBIgARIgAYcSMIL1mBGYLsH6o0VCGp7G0ekLaLcTjIBlhdSy4AM0Bn/ddfEspLyQiha6rPjqJ6xNfbH2VwpdNMsjARIgARJwCQHDCFjnDgQaTsA5BDs5WevnoNx+MAIKti5dUAMAg/9YKPgqRD8dmRJdn0jv/F9IfM1bjtSPSpEACZAACZSGQKBmbwmOu1yM0JjSKJC51itgAFyeOVt2OQpmAGDw12ObHoPsm13VdueKS3Th7/HWfzPc+GwJsmR3A1kfCZAACZDACAkYZkSCzedJYPQZIyypKI+rD/pBMAJ0rB1xKuRZi9+HNg4d/EWi838p0aU3cPAf8U+GBZAACZCAdwkk4l3Su/APElt6rRMbqS/t1+OFuyCRjgpiAECZnaHU/zqRluoUW3q95cvvVP2oFwmQAAmQgLMIRBf9Ca7gDztLqaQ2uj5xTSEUG/ESAAZ/jfSnC+rrF0KhQpehB/X0fHoqo/cVGizLIwESIAGPEzDMsJRtcq84NLTwJVgK+ONIuqAQMwB/hQKOHPwVTHTZTRz8R/IL4bMkQAIk4FMCiXgPxhA9oM+R6Qq8gG88Es1GZACg8mNR+ckjUaCoz0aXSry1IHsliqomCycBEiABEnAmgdiKO0Vw+qsDk4ba/8tI9MrbAMDgX4OKrxxJ5cV+NobBP5EomMtksdVl+SRAAiRAAg4joKe+xttedJhWa9XZD2PxKWv/yvFL3gYA6tEwv47191cOiZ55+sFEAiRAAiRAAnkTcPhY8lsYAbX5NC4vAwCVbYfKLsqnQjufcXin2YmCdZEACZAACeRJwOFjSROa9Yt8mpazAYDBX5/5OySQT4V2PpOIrrCzOtZFAiRAAiTgQQKJXsePJedhbFZ3/JxSzgYASr8QskNOtZQos+H8Ax5KRIbVkgAJkAAJZEvACDv+sCAdy3Pek5eTAQALYxQq0bV/VySjbKIr9KSSJEACJEACziXgkrFkF4zRR+RCMScDAAV/F1KXSwWlzGtG1i9l9aybBEiABEjAAwTMMteMJT+FEZB1gL+sDQAUqrGHL3VTX5o1+4kR0ECFTCRAAiRAAiSQOwETM8lG5ba5P1iaJ7ZCtcdnW3XWBgAK/AGkKtuCHZHPLJdAg8YqYiIBEiABEiCB3AkERp+Kh7J+qc69gsI/8T94Yc9qk35WBgAKGwcdv1F4PYtfYrDxBMwCVBa/ItZAAiRAAiTgKQJGuFkCdTktqzuh/VOgxOnZKJKVAYCC/hMSyaZAx+UJNkpo0m/EMEKOU40KkQAJkAAJOJOAEaiS8OQ/4OU/7EwFh9fqh3hxzzi+Z8yAQvTowbOGr8vZd82qnSU04b9hBLhqGsfZUKkdCZAACXiUgGGGJDT5t2JENnJrCzeA4odlUj6jAYACLoC4/vXZrD0MMwHo0LCjoxdn6i/eJwESIAESKCIBM7KhhNf7q5iVOxaxFluK/lamWoZ9Jcbbv5429BVEQw16I+FUp+iS6yS29F+SiHd5o01sBQmQAAmQwIgIqMdYsOXCvo3jWe2hG1F9Nj28OWa+3x+qrkwGwGl48F9DPezq67GVEltxN2S2xLvVxmEiARIgARLwGwGzfIoE6mdgsx9mzE13Obpl0Vd/gwGg0XsHTZkMgNfw1PaDPumhi/H2V2AI3CXx1U9iVoDHB3uoa9kUEiABEhhAwFAX8dqD8bY/Q4zyLQbc99CFDrRlPIyAlYO1aUgDANP/u+OB5wZ7yLPXYq0wBO6R2ErMCnTN8Wwz2TASIAES8CMBs3wTa9APYE+YmBV+QXApDIDfD9bY4QyAG/HAyYM95Idr8TWvJWcFVj2BWYEePzSZbSQBEiABzxHQODDW23790Xjb39Rz7cuiQa/AABj0pMBBDQC8/atptATCCDqx1ZgRwKyA7hXo+jwL1sxCAiRAAiRQagJmxeZY25+Owf9QvO2Xl1qdUte/IYyAz/orMZQBoLGEb+2f2e9/J9a8IdEVsyS+6jHMCnT7HQfbTwIkQAKOIqDBe3TADzTgbT+iAfGY+gj8BwyAn/WnMZQBMBsZj+qfmX/3EYi1YVbgPswKwBjo+pRYSIAESIAESkjArNiyb23/YETuc2fQ2iLj+zcMgAG7HQcYAJj+r4UiiyGujH9YZIgDik90vC3R5XdiVuBxzAp0DrjPCyRAAiRAAoUnoH776rqnLnwujthXeDBDl7gVjIB3028PZgBo2N+r0zPxexYE4u2YFbg/OSvQ+XEWDzALCZAACZBArgTMyq2Tfvu1B+FtX2PVMWVJ4OcwAH6UnncwA+ARZDgwPRO/50Yg0fGu5UEQa32EswK5oWNuEiABEhhAwAjWYG1/anJtv2z9Afd5ISsCb8MA2CY959cMAEz/667/FRBO/6dTyvd7vENirQ9ITJcIOj/KtxQ+RwIkQAK+JGBWbitBBOsxR+Gd1J2n8jmp3xJQpgVGgHr4Wam/AQB/CXmg7x4/Ckgg0fkBZgVmwiB4WBIxDc7ERAIkQAIk0J+AEazF2v7hybX9ssn9b/PvkRE4CQbALaki+hsAv8WNb6du8rMIBLBRMNb6oLVEEO8Y8oyGIlTMIkmABEjAuQTMqu0liGA95qj98bbv+gNonQr6GhgAZ6eU628AvI0bW6Vu8rO4BBJdH2N5QGcFHsKsQHtxK2PpJEACJOAwAkawDm/7R1gufEZ4osO086Q6X8EAmJRq2VoDAOv/zbi4ELL2WioTP4tMINFlLQ1YewU63ityZSyeBEiABEpHAAOQmJU7WoO+WbMfRpxg6ZTxZ81T0AefaNPTyWPehYN/SX4PCFwRqDvKkkTXJ1geuBMuhQ9iVqCtJOqwUhIgARIoNAEj1IB/447E2v507OcbX+jiWV72BGB1iWUArH3bxwzAP3HxnOzLYM6iEkh0Y1bgkeRegTW6MsNEAiRAAu4iYL3tV+2MQV/X9veG8unvnO5qi4e0/Qf65XxtT7oB8Br+3t5DjfRMUxLdn1uuhLHW+yURXe2ZdrEhJEAC3iRghEZj0O972w+N9WYj3duqtacDWgYA3v7VLNNdaAyr5OROTfQg5PCjCD18l8TXvOlkTakbCZCAzwgYhilm1a59a/t7ofUBnxFwTXM1Zn01ZgFiKQNgS1x4xzXqU1FJdM/p2yugswKtJEICJEACJSFghJrwtn8UXPimi4RaSqKDEyvtQdidt9bEZFmvxt+BOYTRdtPygEwsWzvxXkq1N4cB8H7KADgNmvyrlNqk193x3Kuy6tHnpP3dD6V31WoxTViSoaBUbrKB1B1+gFTtt2t6dn9/T/RaxxNHV2BWoP11f7Ng60mABGwhYBgBMat3w8CPKH01e6JO05Z6nV7JmrjIoyt75f6VUXkHg39PPDn4p+vdFDJl39qgnN0SltHBkhkDJ8MAuDllAPwOCl6WrmQpvi/943Wy8KZZsmbV8D7xoWBAGnfdXlq+eYZEtty4FKo6ss5Ez1fJvQI4qjgRXelIHakUCZCAewkY4RbLWyn5tt/k3oYUWPN3O+Iyc1kPBv+odA4y6A9WXcQ05OSmsFw4JlyKxZIrYABcnjIAnoSC+wympB3XoguWyMcnXyKrFi3NubpRLaOl6cQjpfGs47DBlDtMLYCJqMRXPw5jYBb2Crwq2OORM1c+QAIkQAJKwHrbx1u+9bZfvbteIRgQWBlNyAMY8HXgn9OFV/880241QblivXKpsHcS5QEYAFNTBsBi6F4Sc271vY/JJz+8Qnqi0TzxJR8LBTArsMu2yVmBrTcdUVleejjRM89yJYytvFcSvcu91DS2hQRIoIgEjPBYrOtPs9b3JTi6iDW5p2gd5l9pi8kdy3rlmVVRiRbo5WqLyoBcu1GF2Lgi8C4MgK0MvB3qzn/dFWi7WRd9/V2Zf+4PZGFnlxTyHbVmdIM0H3+4NJ57Es415KxA8n8vzAqseioZV6D9Zc4KJKHwvyRAAmkEDETlM2v2Su7kx47+EgwLado45+sC7Oi7b0Wv3Lm8V5b05P+2P1yLTsVywLfH2eaI1woDoE4NgA2g1KfDKVaMe/HPv5LVp18m8bY11prJgmisYNZUSt9gwJTGHbeWlgtPlfKdtk5d9v1noncBlgfuQrRBnRXIfdnF9wAJgAQ8RsAsG4+1/dTbfoPHWpdfc3Tz/hN4y78Xg/4LeOsv9lIqBmS5ZqNy2QazATalajUA9kFlugfAvoRpk9WnXirR9z5aWyeWU2Reb1S6CzSlsrbgvi/VjXXSfMxh0nj+KWJEwv1v+/TvGPYKPG0ZA/H2l/ADL45l61O4bDYJOJqAgRP3NDqfFaUP0fqYkgQ+xXr+vXjbvxsD/yodmGxMB9aF5NeTI3bVuJkaAKeituvtqlHr6b7zQVnzk98PqFKHnwUwAtZkuYtyQAFZXAiYmBXYZjNpueRMqdh5myye8EmW3oUSXTEbSwR3Y1ZgiU8azWaSgP8ImGUTMej3ve0H6vwHYJAWYxO/PNYaxdp+j7wH971SpRBmAR7eolLq7NkMcLAaAD9EY39mZ4NXn3CRRD/8bMgqF2M5oDVW/LfRqvpaaZ5xiIz+xqlilNtmdQ3ZbmfciGNW4FkryFC87UXMCpTufwZn8KAWJOB+AoaJt32cvBdogN8+TuJjShJ4DyP/LLzpP4A3/q4ivnjmwvvnk8vl0Dpb9q6dowbAX6HcBbkoOJK88TnzpHXaORmLUANADQE7UgD+mA1bbSJjLj5DKnbfwY4q3VEHZgKiK2ZhrwBmBXoWuUNnakkCJLCWgBmZjLf96VjfPwKh6GrXXvfzF3Xfe9By3+uVL7rsGWNy4X3x2DI5u9mWZeofqplhq39HDJv/skm12MCn0yELerFOXVAfgYG1x2D5LXnrA1lyzvelsrZGmqcdJE3fPF2MioqBmf10BSE+g83nQ87DZs3nknsF8MlZAT/9CNhWtxEwzDDW9veHC9/RYlRu5zb1i6KvruSr+56+7T+Bqf7eIu01K4Ty6nFgU6pQA8DWUS6+MPv15Uq8mU8MB2Q+jAC7OmxN62r5/LqZ8uX1d0r9FhtLy/knI/Twbjb1h1OrMRD2c09LJLrU2ieg+wUSPQucqjD1IgHfETAj66e97df4rv2DNXghtvLfh0Ff3fcWF8l9b7B6R3KtLWabAVCuBkD5SJTN9dlET09Oj5RhFmASfPnn9yDEoo1Wm84KLH3nQ1l60X9K5ahqaTriAMwKnIF1tKqc9PdcZgQECTSdAzkbswIvJvcKYM9AAtEHmUiABOwlYJhleNs/UIJY2zcquKlZ6evG/WdWR623/edXF999z94eL2ht9s8A5KO+ekVOgBGwCDMBq+PF3xzYX8c1q9rkixtnyZc3zZaGLTaSZswKVO+/R/9sPvtbZwV2swTnE1uzAjHsF4j3zPcZBzaXBOwnYEY2tDb0BWqnYm2/2n4FHFjj53Dfu6fPfa/VZvc9B+LIRiV3GADaEg1TOCYUkDBOMF5m0+bA/gTjmIFY+u7HsvTi/5aK6ippPnw/aYI7oYl9A75OwQbMCJxlicYT0CBDGl8ggZMKmUiABApDwDDLsY/vQEzz69v+VoUp1OWldPa5792FKf632jkLmWN32r8EkKOCA7I3YHNgGMsCixAvwP65gHXqdLS1yxe33CNf3Xqv1OGY4jEXn869AsBjVu1iCVwH+mYFZku8O7uNn+vo8hsJkECKgFk+xRr0A3WH6f9gqcu+/vx3yn0PR+922rdm7jXm7pkBSCdfjc2BQWwOVA+BUs/0xDArsOyDT2UZ9gqUV5RL89T9pPlbZ4nZ4HOXGwQYCYw+w5J4+yswBnRW4ElJxDkrkP5b5ncSGIxA8m3/YGua3yjfYrAsvrvWioH+wRVRa0PfZ53Oc99zYYdYJ+W4cv663DBlUshA+OBY0cIH59qhnR2dMueO++WrmfdL3ZT1ZcwFp0j1IXvnWozn8ptVO+HFZSeRWKt1/oC1RND9pefayQaRwEgJmBWbJnfy1+rbvq0OWiNVvSjP6374V9vhvofT9x5HXP5ehwTrKUpjS1CoBgLqQL22eQJ0XXu7dPz+moI1VX8PC3CUcDHDB49E2QgiDDbBCGi5VNfIG0dSlKeeja95PelBsOoJzArk5hniKRBsjO8JGIFKrO0fYg38RvlmvuehABap+x429N2FgX+hS9z3CtVxNp4H8Ii6Abo6YTVAxoeCVtRAO8IH5wqrC0cdfzXrYZk3+xGp22CSFVegBpsH/Z7Myu0RknR7kbGrkrMCiCsQ7/rc71jYfh8RMCs2T67tY/AXbPDze9Ll3GfT3Pd00zVTcQm4fgYgHU8rXAQXY0nA6SkSKZPRB+0hLd86R4Jjm5yurm36Jda8idDD2Cuw6jHMCnTbVi8rIgG7CBiBKrztH4q1fUTpi0yxq1pH15Ny37tneVRWRku5tdsZmDgDkGc/1OKkvxD2BdgRPjhPFa3Hurq6Ze49j8t8yKj1JsiYc0+UUdMPHkmRnnjWqNxWQhAZezlmBe7DEgHiCnR96om2sRH+JmBWbNnnt4//zw0ePAaXfXkUIXk1NO+bdN8r2f8cnpoBSFHswdSRbg60K3xwqt6RfJaVhaVp/92l+dKzJTRhzEiK8tSziY53MCtwp8RbdVag01NtY2O8TcBAgB513bP89iMbebuxWbbufTju64a+B+C+10H3vUGpcQZgUCzZX9Q4AVb4YMQK6HTJrtHu7h6Z+8CTMg9SO3m8tJx1vNQei53APk8a8CSkQU/Gfg+zAvcnZwU6P/Y5FTbfyQTMyq2tg3hMBO0Ro8zJqtqi2yqsyj6IAX8mBn6679mCPOtKPDkDkGq97iFZHIvJKhwt7MYUDoeked9dpPmycyU0aZwbm1AUnROd71nRBmOtD3NWoCiEWWiuBIxgDdb2pybX9svWz/VxT+a33Pcwxf+Ynr7nkhcxJ3QEZwAK1AuYCJCWYEDU1WG5C42Anp5emfvwszLvkWeldvwYaT7jWKk76agC0XFvMRoYJTgeMvY7CC3wYDL0cOeH7m0QNXctAbNqO7ztz8CBPAfgbd+WM9wdzWpxmvveAp+57zm6Y4ZQztMzAOltboOHgB4m5M65gHUtCcPlcfReO8mYb2NWYP2J6274/Fui830r2mCs9SFJxDS0BRMJFIeAEazF2v7hybX9ssnFqcRFpWoE/ucQpEc39D2H0/fovjeyzrN7BkDP2fF8qlYPgbAh87EvoNThg0cCuwf6z3/8BVnwxAsyalyLtJwyQ+pOP3okRXriWQ2gEhwHGdM3K6DuhB3ve6JtbIQzCASqdsCgfzTe9hHHwwg5Q6kSajGnOy53w3VPT+Bb0ev2V6sSgixh1ToDoFurbfNLKXQkwFzZRfs8BLo9FGRCZwUad99Bxlx2joSnrJcrEs/mT3R91LdX4EHMCrR7tp1sWPEIGEGcaVF3RDImf5gzbuq+p2v6s/G2/zrd94ryw7N7BqAojXBqoUFsDJiIAXMhjhRux7KAF5LOCix46iVLRo1pkpaTp0n9mcciupjphebl3QYjsjFmBf4f9gpchr0CD8MYgDthx3t5l8cH/UHAwL8RenaFuu+ZNfvibd/1AVNH3HEfwH1PB/378ba/hu57I+bplAJ8+cvW8MHjQgFZgsWrlS7cHDjcj2fVwiWy6jf/kNCVV0vjrtvJGMQVKNvM5z7ICLwSqDvKkkTXJ8m9AisfwKxA23Aoec9nBIxQA34jR2Lgn479fON91vqBzcVyvuW+dyfc9z7h6XsDAXngii8NgFS/NcFDoAzW/iLMBngt9aJNC5991ZJRLaOl6fjDpfGcE0SCvu5yBGHbCDMC38degUsxK/CIZQzE17ztte5ne7IkkHzb38Wa4jdr9sZT/v7/Q7G9pqfv9bnv9dB9L8tfkjuz+f7XPiqAzYEwAnRzoDcWBAb+EFctWiqrfn+tzPnT9dK48zY4mfBsiWy58cCMfrqCAC3W2i7WdxPdn1vLA7HW+yURXe0nCr5tqxEajTf9vrf90Fjfckg1fEnKfQ8D/3xs7mPyBwHfGwDazRVYE5iEoDvzensRPti7Hd+LoEgLX3jdkprRDdKsswLnniQS9vfPwEDgliAiDQbHfAsHET0q0eXwIMDBREzeImAYppjVu/at7e+FxgW81cAcW5Ny39O1fXXfi3loY3SOKHyb3d//8qd1OzwEZRI2B87H1LlbwgenqZ/z19VLl8vqP/1LvvjrjdK4w5Y4mfBMKd92i5zL8dQDCORiIppbGJLo/sIKO6yHEiWirZ5qpt8aY4SaMOgfhYA900VCLX5r/oD2ftmdsFz37sbAv5zuewP4+OkCDYC03g5gKWAC1sjdHD44rTlZfY1iVmDRy2/JopO+JdWNddJ89KHSeMGpWCv3d1Qzo2w9zAh8W4It38SswOPJA4naX8+KKTOVnoBhBPC2v7u1oc+s2RMK+dsjpgszm0/0nb73Wpu++zORAHe8DPgNwAawwgfrvoBlHtwcOKDBaRfalq2Utr/fLHP+eas0bLeFjPnmGVK+09ZpOXz4FQFfzNpDMCtwiCR6vkrGFVh5L2YFVvoQhvObbIRb8KY/Dfs7puFtv8n5ChdZww/T3Pfa6b5XZNruK54zAEP0WQM2B+qygBfCBw/RxCEvRxEfYfFr78ji078tVfWjpHnGoTL6G5gVKLctXtSQupXyhoFAMOo9EGy5WOKrn7CMgfiaVwXBtEqplu/rtt728ZZv+e3jrR+O+75m0tbnvncXpvg/6vCeh5OvO7fAjacBMAxQr4QPHqaJGW+1r1gl7VfdKnOuuV0att5Uxlx8ulTstn3G5zydAYFhzFEHWZLomZvcK7DiHswKrPB0s53WOCM8Nvm2j/V9CY52mnq26/N6mvteN933bOfvxgppAGTotQiWAiaGQpaboJfCB2do9oDbMcwKLHnz37Lk7MulsrZamo86WJouOV2MiooBef10wQhPwIzAJZBvYK/A0zAGEG2w/WXOChTpR2Co8VWzV9Jvv2pX1OLvt/2lONjkPrzp69v+PLrvFelX591iaQBk0bch/BszEZEDk+GDOd27prVNPv/XTPnyhrukfvMpmBU4TSr32jkLkl7OorMC+1uS6F3Qt1cAswK9y7zcaNvaZpaNtzb0aaQ+CTbYVq8TK9JJ/efhtjdrWY88S/c9J3aRa3SiAZBlV5mYCRgHN8Gl0biswM55JhGdFVj67oey9PwfSuWoKmk64kBp/tZZYlT5fFYAgWV0n0Cw5ULsFXgmuVeg/UXMCjDASi7/3xi6AXPU3hj4cQJfld8NTJGv0tz3ltF9L5efEvMOQYAGwBBghro8OpjcHLgYHgKcC1hHac2qdvnixlny5c2zpQFnD7RceKpU7bfbugy+/AZXNBwmYx0o07sQroSzsURwN2YFlviSRraNNssmJt/2EakP2/mzfcyT+TDmW+57OsVP9z1PdnFJG6UGgL8X0fLAb4UPhlvx/N6YcK/N1wHGAWTpex/L0ov+UyqqK6Vp6n7WrIBZW/P1jH77KzRGgs0XQs7HrMCzMAQQbbDtec4K9P0ODBNv+zX7Jdf2K3f0269jQHs/hvueDvoP4PS9NrrvDeDDC4UhwBmAPDlWIKzopCDOEMBMQA/dwAal2NG2Rubceq/Mve0+qdtkA2m54BSpPmjPQfP65yLC0eLQGevgmd7FyVmBlZgV6FnkHwRpLTUjky33vUDd4Xjbr02747+v2MSfPH0PAz/d9/zX/6VoMQ2AEVAP4wwB3Ry4AEZAB6cChiSpMcaXffCpLPvWj6Uc+wOaD9lbmr99rph1o4Z8xhc3Qs3WjECw+VzMBryQnBXA7EAi4e09JoaJkMvYMBnE2r5RuZ0vunq4Rr6xRjf09cqjiNRH973hSPFeoQnQABghUQ0fPB6bAxdjOWAVNsUxDU+gs71D5sx8UL6a+ZDUTZksYy44WaoP3Xf4hzx/Vw+p2cMSiS619gnofoFEzwJPtdyMrJ/2tu/vJaFl6r6H6X0d+L+i+56nfuduaoyBKGZdULjMLqW7rr1dOn5/jV3V2VrP8ljcd+GDCwG4vKJcRh+0l4z5zjliNtYXokgPlJFAPIEXkx4E8CRIJNwZv90wI3jbPwCeezMQM2IbD/RL/k3QeZ0X1H0PU/zPrIry9L38UXr6yQPrQvLrybZEXX2EMwAF/Cn5OXzwSDB2dnTKV7Mflnl3PyJ1G0yUlvNOkpojDhhJkR541oDr226WYKOAxHBMcaz1YUl0vA1jwNn+J1Zo3qodcYbCwRLAVD8a4YH+yL8Jc3tw+h4GfT19bynd9/IHyScLToAzAAVHKtKF/QDqIRClo2DedCORMhl94B7Sgr0CwRaGeV0LsnfRWmMg3vH+2sul/mJgKUzX8wMIkRyoPdD3G/ow5svjqdP3sLvP6UZbqX8/rH8dAc4ArGPhym8R3RxYFrCMAG7qya8Lu7q6Ze69j8v8+56QUZPHy5izj5dROKrY9wnn2QcaT7VE4EUQX/NGn7wp8a7PbcNjwAvGiGwkJgZ9S6qwmc/nPvsKX933dIr//pVw38M6PxMJOJkAZwCK2DtxTNUuROTAdm4OLAjlskhYRu+7G/YKYFZgXEtByvRUIbFWGAMwBDo/kET3XOv4Yusz1j6iZhrBUaInIRplE0SD9Bjlm2PQxzHRPp/aT0Ftx97fhzDg34UNfR/w9L0UFn7mSYAzAHmCc9pjyfDBAVmC3T8rYQgwjYxAd1ePzHvwKZkPqZ00TprPOk7qjoP/OFOSAPzo10YeTGcSW5k0CKI4lyDeKYlYBz47JAHRv61YYGa5GCZCOAcq8FmOwb1SjNBoa+CXQHV6afzeR+BNdd/D2/6jK6PWsh/BkIDbCHAToA091hQIwM3CEIYPLgxsnVhd+eV8Wfnf/ydlP/+zjMZBRC3fPVdCE8cVpgKvlYKpeaMC4rV2laA9y1Puexj4v+yiUV+CLmCVBSRAA6CAMIcrKhk+2JAF2ByogXGYCkOguxuzAo8+K/MffU5qJ7RI02nHSP0p0wpTOEshARDQYT7dfS/K/3/5u/AIARoANnZkBXZKa+RA9RBg+ODCgk/A42Ll3IWy8md/lPAVf5PRe+6IvQLnSWi9CYWtiKX5hsB8bOWfjTd9deFbQvc93/S7nxpKA8Dm3g7DCJiEyIFqBHTweNii0O/p6ZX5j78gC554QUaNbZaWU4+WutOPLkpdLNRbBNR97wm47+nA/wrd97zVuWzNAAI0AAYgKf4FeAnK+DA2ByK4WyuiBzIVh4DO1LbOXyytv/yLhH77Dxm92/Yy5rvnSXjDycWpkKW6loC6792N0Lwannc13fdc249UPDcCNABy41Ww3LohqzkYkBC2Zi2Nefvwl4JBG0FBvb1RWfD0y7LwmZelpnm0tJw0TerPPg673XGuM5MvCayB7a3ue/q2/x529DORgN8IqAHAzcEl7PX6oCl6quBCnCiocQOYiktAEa9atFRW/e6fEv7DNdKwy7YyFnEFwptsWNyKWbpjCLyV5r7XyVM8HdMvVMR+ApwBsJ/5gBqrNHIgZgN0X0AvwwcP4FOsCz0wuhY+95olNc2N0nzCEdKIcwg4K1As4qUrd4XlvheF336PzKH7Xuk6gjU7igANAId0R1kqfHBPTLo4E2B7r6xevExW//5amfPn66Vhx62tWYGyzafYrgcrLByBlPueTvHr6Xu9/P+qcHBZkicI0ABwUDcGsRozIRyURdGotMW4HFCKrunFrMCiF9+QRcdcKNWj66X5uKky+oJTRIL8X6UU/ZFPnQuwlV839OnAv6SHm2zzYchn/EGA/6o5rJ91S9pYDDZLJSYr6CFQ0t5pW7pC2v58g3z5t5ulfvstZOxl50hkm81KqhMrH5xAL+zlJ/GWr6F5X27j6XuDU+JVEvg6ARoAX+fhmL9GY0+Abg60wgdzMqCk/dILL43Fr7wti0/8plQ31EnTjEOk6eIzRDBbw1RaAp9iPV/f9NV9bxXd90rbGazddQT4L5iDu2wUXNRCQYQPxrQ0wwc7o6Palq+Utn/eIl9ec5s0bLO5jLn0LCnfYStnKOcTLTowq/+wnr6HgZ/uez7pdDazKARoABQFa+EKrdDNgVb44CjCBxeuXJY0MgJRLM8sfv1dWXzqZVJVP0qapx8soy8+UwwcWcxUHAJvw3Ffd/E/gkh9ndwjUxzILNVXBGgAuKC7k+GDQzIfmwM76LfsuB5rX7FK2q++XeZcO1MattpExlxyplTsup3j9HSjQivXuu/1yhddDNbjxj6kzs4lQAPAuX3zNc0wESDjcYaA7glYxc2BX2PjlD9i8bgseet9WXLW96SytlqajzxQmi49W4zyiFNUdIUeOtH1IjbyzVrWK0/Tfc8VfUYl3UmABoCL+k1DNrbo5kAcKLQUhgCTcwmsaW2Tz6+/S768cZbUb76xjL3kDKnYY0fnKuwAzRb2ue/djbX9RXTfc0CPUAWvE6AB4MIerg8gfDCMAIYPdn7nxbBks/TdD2XpuT+QipoqaT7iAGnWWYGqCucrb4OGunE/5b73Et33bCDOKkhgHQEaAOtYuOqbFT64b3Og+kAzOZ9Ax+p2+eKm2RkgeJwAACqrSURBVPLVLXdL3aYbyZhvnCZV++3qfMWLoOFncN9Tn/374b7XSve9IhBmkSSQmQANgMyMHJujDLMAE0PYHIiT7hg+2LHdNEAxnRVY9u+PZdlF/yEVmAloOmw/acaBRCZmCLyccOKudfqeDvzv8vQ9L3c12+YSAjQAXNJRQ6mJMAHJ8ME4SKgNm9CY3EWgo71D5tx+n8yd+YCMPWRvGf+rH3gu7PA7cNyftaxHHqb7nrt+nNTW8wRoAHigi63wwVgOWIZ9gcujNALc2KXqQTD3gSdlyRPPy3qYDag7ZYYbm7FWZ12WugO7+DVYz2ed3LC6Fgy/kICDCKgBoJvLmTxAoDEQkBC6czFC1/LgM3d2aHdXj3z4sz/Lhq2rEVjoDFc24im47v12frfM66Yx6soOpNK+IcAZAI919ag+D4H5DB/s6p79DIcQBevrpO6ko1zTDn3r//6cLnmytdc1OlNREvAzAZ09ZvIYgXJEDZqEJQF1FWRyJwF17Pjkp3+U3i/muqIBqu8POfi7oq+oJAmkCNAASJHw2GcIg/8knFanZwkwuZOAHgD11Y+ucIXyP5/bLY/xzd8VfUUlSSBFgAZAioQHP7VzJyB8sJ4qyOROAsve+rf0zl3oaOX1kJ6Z2OXPRAIk4C4CHBnc1V95aduC5YDRCCHM5D4CevbT4j9e62jFr17c7Wj9qBwJkMDgBGgADM7Fc1c1fPB4GAFcEXBf13Z88Kljlf4Y0X2exa5/JhIgAfcRoAHgvj7LW+NKGAETsSQQ5ObAvBmW4sHOhUtLUW1WdT7OwT8rTsxEAk4kQAPAib1SRJ00fPAkGAERGgFFpFzYons6uwpbYAFLe48hfQtIk0WRgL0EaADYy9sRtaXCB1dzPcAR/ZFJiQAMNqemZTyJyqldQ71IICMBGgAZEXkzg3b8WAwsDUH+BJzew8FImWNVbNddikwkQAKuJMB//V3ZbYVTWsMHj4GXAFcECse00CWF60cVusjClcfxv3AsWRIJ2EyABoDNwJ1YXQ3iBEwIBoWOgk7sHZGmY6Y6UzFqRQIk4GoCNABc3X2FU94KH4zIgbpJkMk5BEJw3aw/4xjnKERNSIAEPEOABoBnunLkDdHwwRPDAank5sCRwyxQCc377CrCSI4FosliSIAE0gnQAEinwe9i4jjh8dgcWIuYAUylJVAzukEm/PF/SqsEaycBEvAsAf1XnnO+nu3e/BvWjKlnhg/On99InwzBCNv41j+NtBg+TwIkQAJDEuBr3pBoeMMKH4yBiD8Se38LVdj1vyUG/+DYJnsrZm0kQAK+IsB/233V3bk3VvcDTMTmQIYPzp1drk+Y2IMxYep+suXzd0nZZhvl+jjzkwAJkEBOBJwbYiynZjBzMQkkwwcHZEE0Jp0M/FJw1GqF12+6oUz8yXekbPMpBS+fBZIACZDAYARoAAxGhdcGENAZgAlYDljYG5U2GgED+ORzQZ0tGrbcRCb+7HsS3nByPkXwGRIgARLImwANgLzR+e9B3S2q4YOXYSZgeSzuPwAFarFO9Y/eYUuZ8LPLJTRhTIFKZTEkQAIkkBsBGgC58WJuEGiEh0AYr6+LemPCSLDZ/yQCYNa02/YY+L8ngabG7B9kThIgARIoAgEaAEWA6ociNXxwKGzI/J6oxPzQ4BG0MYiYCs377CLjf/o9MWtrRlASHyUBEiCBwhGgAVA4lr4rqRxT2ZPgITAfMwHdCc4F9P8BaBjfloP3lnH/e5kYFRX9b/NvEiABEigpARoAJcXv/spT4YMXwAhYw82BVoeGwyEZe+QB0vKjS8SIhN3fyWwBCZCAJwnQAPBkt9rbqFT44MXYHNjq482BZWVhGXvsVGn5/gUiOF2RiQRIgAScTID/Sjm5d1ymm4YPDmNZYAkMAT+l8vKIjD1lmjR9+1w/NZttJQEScDkBGgAu70CnqV+HDW/YGyi6JOB1R8GKqgoZd9bx0njhKU7rBupDAiRAAhkJ0ADIiIgZciVQCQ+BSSFD5kajEvXg3sDKUTUyAYN+3elH54qG+UmABEjAMQRoADimK7yliMYJmIygQfM9FD64uqFOxl96ltQec5i3OoutIQES8CUBGgC+7HZ7Gh3AfgArfDCMgDYXbw4c1TJaJlx+vlQfuq894FgLCZAACdhAQA0AjfDKRAJFIWCFD8bmwOUwBjSEsJtS3fgxMuFHF0nlPru6SW3qSgIkQAJZEeAMQFaYmGmkBBqwORDbAhwfPhh2itROniAT//tSqdh5m5E2m8+TAAmQgGMJ0ABwbNd4TzENHxyGFTAPMwExh0UO1JmK+o3Xl4n/822JbL2p9+CzRSRAAiTQjwANgH5A+GdxCUSwOVDDB8/r6ZUeB3gI6Ml8DVtMkYn/+x0Jb7JBcRvP0kmABEjAQQRoADioM/yiSggNnYhwuQut8MGliRagGxQbt9vCOpkvNGmcX9CznSRAAiSwlgANgLUo+MVOAgFUNj4UkMVRsTV8cADLEE27bCvjcSRvELv7mUiABEjArwRoAPi15x3S7mT4YEH44OLOBOiRvE177SwTfvJdMRtqHdJ6qkECJEACpSNAA6B07FlzH4G6QPIMAV0SKLSjoB7J23zgnjIea/wGQvcykQAJkAAJJAnQAOAvwREENHzwxLBpbQ7sLYBGIUQhHHP4/jL2vy7125G8zwLfp5AzC4CRRZAACXiYgOnhtrFpLiOghwiph4B6CuSb9Eje9U46UnZ4434Z9/PL/TT4fwlm0w3D2Aufr+fLj8+RAAn4hwBnAPzT165oqe7On4i390VYDlgdz35fQKS8TMaddFTySF7MJvgodaOtv4P8FIN/h4/azaaSAAmMkAANgBEC5OOFJ6Dv/2PgIRCCh8DyDGcIlFeWy/gzj5PGi04rvCLOLhF05CbIjzHwz3G2qtSOBEjAiQRoADixV6iTRaARG/jKMCOwEJED+8cMqhxVJePPO1nqzzrOb7T0jf96yM858Put69leEigsARoAheXJ0gpMoBrue0EYAXqssIYPrqqvlfGXnCF1xx9R4JocX9waaHgV5FcY+Bc6XlsqSAIk4HgCNAAc30VUsAJGwEa77SCBqftKzREH+A1IKxr8F8jvMPAv91vj2V4SIIHiEaABUDy2LHmEBAw9PAg+/JFzT5TAhpNHWJrrHl8Cjf+ggoG/zXXaU2ESIAHHE1ADIH+fK8c3jwq6kYCBtf/wYftJ+dnHizlpvBubMBKd5+Jh3dX/dwz8nSMpiM+SAAmQwHAEOAMwHB3es5WAEQpJGab4I+ecIObYZlvrdkBln0CHKyDXYeAvRCwkBzSJKpAACTiZAA0AJ/eOT3QzyiNSNv0QKT/jWDGaGnzS6rXNfAfffg25BQN/9oEP1j7OLyRAAiSQHwEaAPlx41MFIGBWV0rZsYdL5LSjxaitKUCJririJWirO/pnu0prKksCJOAZAjQAPNOV7mmIWTdKIojaV3biND8e0PM0eupnGPgfdU+PUVMSIAEvEqAB4MVedWibTEzvR049WiLHThWJlDlUy6Kp9QBK/gkGfn3zZyIBEiCBkhOgAVDyLvC+AoFxLRLB+n7ZtINEsNHPR0nX9O+C6MCva/1MJEACJOAYAjQAHNMV3lMksP5EKUecfnXpEwTz8VHSXfw3Q3SqX3f3M5EACZCA4wjQAHBcl7hfoeCmG0kEMfo1iI/PkvrtXwf5BQZ+9ednIgESIAHHEqAB4NiucZ9ioa03s3z4Q3vu5D7lR6axRur7O+QKDPwawY+JBEiABBxPgAaA47vI+QqGdt5Wys87SYLbb+l8ZQurocbm/xPkSgz8GrOfiQRIgARcQ4AGgGu6ylmKYsCT0F47WwN/YPMpzlKu+NroaXxXQv4MDnpKHxMJkAAJuI4ADQDXdVlpFTYCiNN/wB4SwRt/YINJpVXG/trnoMrfQK7CwN9tf/WskQRIgAQKR4AGQOFYerokIxSU8FQ9oOdEMSeM8XRbB2ncB7im4XpvxMAfHeQ+L5EACZCA6wjQAHBdl9mrsIGAPWXTDpYI3PnM5kZ7Ky99bW9AhV9B7sDAnyi9OtSABEiABApHgAZA4Vh6qiSjssKK2Bc5/RgxELrXZ+lFtFd9+O/3WbvZXBIgAR8RUAPA8FF72dQMBMxR1YjRf5RETkac/uqqDLk9d/sxtEij9j3juZaxQSRAAiTQjwBnAPoB8eufZmO9RE6ZLpHjjxDB8bw+Sjq1fy9EB/7XfNRuNpUESMDnBGgA+PwHEBjbjON4j5GyGYeIhH0Vpz+Grr8d8lMM/O/7/GfA5pMACfiQAA0AH3a6NjkwabyUa7jeqfuLBAN+otCDxl4P0XC9n/up4WwrCZAACaQToAGQTsMH34NT1pfI2cdL+KC9sPvDV9s/OtC9V0F+hYF/gQ+6mk0kARIggWEJ0AAYFo93bga32hQ+/MdLaO9dvNOo7FqyCtn+AvkdBv5l2T3CXCRAAiTgfQI0ADzex6Edt5byc06QIOL1+ywtRXv/oIKBf7XP2s7mkgAJkEBGAjQAMiJyZ4YwTuSLnHui6Ju/z9I8tPd3kL9h4NfjeZlIgARIgAQGIUADYBAobr1kmKaE9t9dys9FnP4p67m1Gfnq/SkevAJyHQZ+3ejHRAIkQAIkMAwBGgDDwHHLLQO7+MOH7mtN9ZvY3e+z9B7aq+F6b8HAr659TCRAAiRAAlkQoAGQBSSnZjHCYSk76iDE6T9WTPjz+yy9gvb+EjIbAz/j9Pus89lcEiCBkROgATByhraXYCBSX+SYqRI5/WgxEMHPZ0nD9Gqc/kd81m42lwRIgAQKSoAGQEFxFrcws6ZKyk44EnH6p4uBmP0+Sw+ivRq17wWftZvNJQESIIGiEKABUBSshS3UrK9dF6cfp/T5KMXR1lkQHfjf8lG72VQSIAESKDoBGgBFR5x/BWbzaCnHNH/Z0YeJlIXzL8h9T0ah8s2Qn2Pg/8h96lNjEiABEnA+ARoADuyjwISx2Nh3nJQdeQDi9Puqi7rQHddBfomB/0sHdg1VIgESIAHPENDRxVcB4Z3cc8ENJ0vkLMTpP2RvEfj0+yi1o61/h/wGA/8iH7WbTSUBEiCBkhHw1etlyShnqDi4+RTE6T9BQvvtliGn526vQIv+BLkSA/9Kz7WODSIBEiABBxOgAVDCzglttyXC9WLg33X7EmpRkqr1Lf9KyJ8x8OvbPxMJkAAJkIDNBGgA2AxcqwvvtoNEzkOc/m02L0HtJa1S1/V/A7kKA7+u9zORAAmQAAmUiAANAJvAY8CzpvjLzzlRAptuaFOtjqlGd/JruN4bwEF3+DORAAmQAAmUmAANgCJ3gBFAnH5s6tM1fnP9iUWuzXHFq+++huu9AwO/+vQzkQAJkAAJOIQADYAidYQRCllufLqr3xzXUqRaHFusRuv7BQb9+xyrIRUjARIgAZ8ToAFQ4B+Axukvm3EoAvgcI0ZTQ4FLd3xxj0NDDd7zhOM1pYIkQAIk4HMCNAAK9AMwqiolcvwRVsheo25UgUp1RTF6Ep++6f8EA/+rrtCYSpIACZAACQgNgBH+CEwM9pGTpknZiUeJUeWrOP0xoLsDoifzvTdCjHycBEiABEjAZgI0APIEbmJ6P3La0daxvBIpy7MUVz7WA61vgOga/2eubAGVJgESIAES4AxArr+BADb0Rc48VsqOOkgEG/18lDrQ1qshv8bAP89H7WZTSYAESMCTBDgDkGW3BtabYLnyhQ/dVyTgqzj9q4HoL5DfYeBfmiUuZiMBEiABEnA4ARoAGToouMmGUn4OwvXuvzuOTfLVuUnLgOYPKhj4V2XAxNskQAIkQAIuI0ADYIgOC22zmUQQtS+0x45D5PDs5flo2e8gf8PAr9P+TCRAAiRAAh4kQAOgX6eGdtnOeuMP7rBVvzue//NztPDXkGsx8OtGPyYSIAESIAEPE1ADQEO02raorRHynJYw4Elo710w8CNO/xZTnKZesfX5Nyr4BeRWcFDXPiYSIAESIAEfEFADoA1iW+Qac8IYx2C14vQfuCem+k+QwIaTHaOXTYq8hnp04J+FgV+D+TCRAAmQAAn4iIDtBkBgwtiS4zVCQQlP3V/KNU7/xNLrYzOQZ1GfBu952OZ6WR0JkAAJkICDCKgBoG5etiUdcM2aaomv1okHe5OBgD1l0w+WyBnHidncaG/lpa/tIajwUwz8z5deFWpAAiRAAiRQagJqAKi7l30pGJSyYw6Tzmtus61Oo7JCIscdLpFTZ4hRX2tbvQ6oSPd3zIbowP+mA/ShCiRAAiRAAg4hoAbAR5C97NQngrj5XTfcKYneaFGrNUdVJ+P0n4Q4/dVVRa3LYYUr2FsgejLfhw7TjeqQAAmQAAk4gIAaAB/YrYcxul7KLzpdOq7UyLKFT2ZjvfW2r2/9guN5fZS60dbrIL/EwD8Hn0wkQAIkQAIkMCgBNQBK8oYYOeNYiX38uXQ/8OSgiuVzMTCmCev7iNM//RCRsPPcDfNpU5bPtCPfPyC/wcC/MMtnmI0ESIAESMDHBNQAeAOibmC2x7mt/O/LrGWAnkd1Y3r+KTBpvLWjPzx1P5FgIP+C3PfkSqj8J8iVGPhXuE99akwCJEACJFAqAkEMHIsTiYSe576l7UqUhaXqih9J9633SMdv/wljoDcnFYJT1rd8+MPw5fdZnP7FAHUl5M/oP/vdKXLqJWYmARIgARJwIgGdAdD0GMR+A8CqWqTshCMltOdO0nXTbOme/bAkOjr77gz80OA9we23lMgp0yW0184DM3j7yldo3m8g/8TA3+XtprJ1JEACJOA/AmH75uK7UwbAo8B8WSlRm+NapOLyC6T8wlMl+spbEv3wU4l99LkkurrEqKq0JLj1ZhLebzcx6mwLXFhKJOl1f4w/fgW5AQN/btMk6aXwOwmQAAmQgKMJ1AZtswBWpAyAx0FkOaSh1GSM6krr6F3r+N1SK1P6+t+BChqu93YM/OrTz0QCJEACJOBhAlPKbdvHtsI6BAiDSw943uRhpm5r2ktQ+Ej0y9YQPaSHg7/bepD6kgAJkECOBEwcTLdjlW0GwPL0UwCvzVFXZi88gSdQ5AEY8HeF3Fv44lkiCZAACZCAUwnsXxuUMfZtAkjOACgMDDhv4eMVp4LxsF7qgnkfZBf0wf4QXY5hIgESIAES8BmBc5rDdrZ4nQHQV+v/2lm7z+vSaX09EGEbDPpHQF72OQ82nwRIgAR8S+DQ+pBMKU+flC86io+/VhsGoftR5WtFr9bfFegu/msgm4D3CRDd6MdEAiRAAiTgUwLbVwXlxxNtDVvfAdTvfs0A6GP/Y5/2QbGbrcEN/gjZAIP+2ZBPil0hyycBEiABEnA2gY0rAnLlBuVi39K/xeN1jEHRAQYALuosgApTYQisRjHqwz8ZbC+BzC1MsSyFBEiABEjArQRCpiFntZTJtRtVSNWAkbjorVJPM0nFAehf20W4sA+ksv8N/p01AY2r8AcVDPqtWT/FjCRAAiRAAp4loK5+e48KymXjymSCza/9aVCtPWeDGgAYsL7E+QD/hcy/TXuAX7MjsKCP29/BcU12jzAXCZAACZCAlwmMCZsyFRv9jm4MSUvItmh/gyFVz7MX9cagBkDfE3rYDM7VlQP7/ubH8AS+wO1fQ67FwN89fFbeJQESIAES8DoBnebfoyYoMxpCsntNwP4jdwcH/DTGKH1RHdoAQIY4ZgFOQh49LniCZmYalMAHuPpLyM1gFh00By+SAAmQAAn4hsAGCOd7RH1QjsLAXxso6dv+YMz/lbo43AyABgdaBiPgWGR+BmJrhIKUgg7+VMPo55C7wEmnVJhIgARIgAR8SqACA71G8puOQX/bStvC+eZKW5elZ6YeGtYA0EwY3F6GEXAqvt4CsX+voirhrPQc1PkZuDzkLLWoDQmQAAmQgN0ENoMb33Ss60+tC4m9cXzyaulMjF3tqSczGgCaEQ/cDiOgGl+vSj3ow8+H0eafg4XOhjCRAAmQAAn4lEBd0JSD64JyLAb+9SOuei++Lr3LsjIA9AEMfFf3GQH/l16Ax7/r1P5siL7xv+7xtrJ5JEACJEACQxDAGCA74KQ+neI/EFP9Qcct7Q+h+LrLL6ANT637c5hNgOmZUt/x8JUwAlbgb50JCKWue/Azhjbpkscv0Ob3Pdg+NokESIAESCALAi1w3zsc7nsz8LY/prTue1loO2yW7/S/m/UMQOpBDIjXwwhQF4I7ITWp6x75VPc93SH5K7Tzc4+0ic0gARIgARLIgUAIb/t7IFiPvu3v4Rz3vRxaMCDrHRjTrOh/6XdyNgD0YRT0GIyAXfH1VsiWes3lSXdG/gPyG7TN8o90eXuoPgmQAAmQQI4E1o/Afa8B7nt4469z4Rz/EM3twfUfDHYvLwNAC8JA+T6MgJ3w9TcQDR3sxqQhev8E+T3as8yNDaDOJEACJEAC+RMoV/c9fdvHFP92znXfy7+BIn/G+DbojHbeBoBqg0K78HExDAF1idOBdBLEDWkJlNRIhwpGD+thIgESIAES8BGBTdV9D1P8Gp63wlUb+XPqpHeR+0dDPTEiAyBVKAbR+2AEPI6/v98nkdQ9h33Ogz5XQP4JnfV4XiYSIAESIAGfEBiFaf1D4K+v7nsbuMt9L58e0pfbo4cb6wpiAKhmfZX8GIbAdfjzPyAaPMgp0QM/hS4arvcG6KnrIUwkQAIkQAI+IIB/82V7uO9pPP4D4L7n7o38OXXYWWj7J8M9UTADIFUJKpyD7+fAENDTBC+DnA/RIEKlSE+g0j9D7oZe6trHRAIkQAIk4AMCzX3ue0dj4B9TumN3S0X6/zDmqafesKngBkCqNlSuu+m/B0Pgx/icBjkZoicLFq1OlK1pOeQmyF+gw0d6gYkESIAESMD7BNR9T0/dm94Ylj294b6XT6fdg4cuz+bBYg/GujSgLnY6IN8EY2A0Pg+H7NMnE/E50qTR+l6HPAh5APIK6ozjk4kESIAESMAHBCZjPf9IbOabhrd9D7nv5dNzt+GhUzAGRrN5uOgGQLoSUGop/r62TwQGwXr4vg1kSpo04bsuGVRBKiE6wOtmhlV9n1rG+5D3IP9WQbnqzsdEAiRAAiTgEwLlpiH79Z2+p2v8THIdGJyD8TDr5W5bDYD+HQRFv8A1lUETDARk4VG7g8LhRRIgARLwIYFN0tz3Kr3rvpdrz/4FD1yc63hZUgMgUwtzbUym8nifBEiABEjAfQRq4L53KNz3job73kbed9/LpYM0fP0PMFZqXJuck6MNgJxbwwdIgARIgAQ8QQCDmuW+p+v6B/nLfS/b/nsbGXW9X5fD80o0APLCxodIgARIgASKQaApdfoeBv5x/nPfywapbnLXEPz/icF/RHFtaABkg5t5SIAESIAEikYg2Oe+p2/7eyEuP5f2h0T9Cu58FwP/s0PmyOEGDYAcYDErCZAACZBA4QhMwnr+EXDf05j89d45fa9wgNaV9Dy+/gQD/8PrLo38Gw2AkTNkCSRAAiRAAlkSiKS57+1A971M1J5EBh349bPgiQZAwZGyQBIgARIggf4ENk5z36viHH9/PP3/1g1+10KuwuCvwfSKkmgAFAUrCyUBEiABEqjW0/dqQ3IM3PemlHPUz/CL0IB3GslPB31d6y96ogFQdMSsgARIgAT8QwCDl2xXGbDC8h5UFxRu5M/Y9y8gx1WQ28CuI2PuAmagAVBAmCyKBEiABPxKYHTIlKnY0KfBesZz1M/0M1iCDDdA/olBv2SH1tEAyNRNvE8CJEACJDAoAXXf2xWn7s2g+96gfPpdVP/9RyH6tq9H1Pf2u2/7nzQAbEfOCkmABEjA3QQmluH0PQz66rffQPe9TJ05Bxmug1yNQX8ePh2TaAA4piuoCAmQAAk4l4C67+3bd/rejnTfy9RRGqP/Hoi+7T+KgT+R6YFS3KcBUArqrJMESIAEXEJgSnlApmNd/3AcxsNxP2OnaVz+ayDXY9BfnjF3iTPQAChxB7B6EiABEnAageqAIQdjwFf3vY3pvpepe9qQ4XaITvG/mCmzk+7TAHBSb1AXEiABEighgW2rglZYXnXfKzNKqIg7qn4Jal4NuQUDf9GC9RQTBQ2AYtJl2SRAAiTgcAKNlvteEDv5wzKRo36m3lqKDDdB/oFB/4NMmZ1+nwaA03uI+pEACZBAgQkE4L63G9z39BAePX0vUODyPVacuu89DtENfbMx8I/oCF4nsaEB4KTeoC4kQAIkUEQCE/rc947CwD+a7nuZSH+FDNdBdG1fv3su0QDwXJeyQSRAAiSwjkCZuu/hLV938u/EbfzrwAz+Td/u74Xo2v7DGPj17d+ziQaAZ7uWDSMBEvAzgY3UfQ9v+ocjPG815/gz/RTeRwY9fe86DPrLMmX2yn0aAF7pSbaDBEjA9wTUfe8guO9pPP5N6b6X6fegO/fvgOjpe89nyuzF+zQAvNirbBMJkICvCGwD9z2Nx38g3PcidN/L1PevIoNu6LsZA397psxevk8DwMu9y7aRAAl4lkAD3PcOr6f7XpYdrFH51H1PT9/TaH1MIEADgD8DEiABEnAJAXXf09P3dG1/b7rvZeo1jb//BEQ39N2FgV/j8zOlEaABkAaDX0mABEjAiQTGwX3vKGzm09P3Roc4x5+hj+bh/r8gurY/J0NeX9+mAeDr7mfjSYAEnEog3Oe+p4P+LtzGn6mbepHhfoiu7T+Igd/T7nuZYGR7nwZAtqSYjwRIgARsIKCn72mgHnXfw2w/0/AEPsLtayDqvrdk+Ky8258ADYD+RPg3CZAACdhMoKrPfU/X9reoMG2u3XXVdUDjmRCd4n/Wddo7SGEaAA7qDKpCAiTgLwLbIDLfNBzCczDd97Lp+NeRSTf03YSBf3U2DzDP8ARoAAzPh3dJgARIoKAE6vvc9/RtfzI29zENS2Al7t4M0dP33hk2J2/mTIAGQM7I+AAJkAAJ5EbAVPc9bOTTDX371Abpfz08PnXfexqiG/ruxMDfNXx23s2XAA2AfMnxORIgARLIQGCsnr6HzXz6tt9E970MtGQBMqTc9z7PlJn3R06ABsDIGbIEEiABElhLQN339tHT9zDo031vLZahvkRx4wGIvu0/gLf92FAZeb3wBGgAFJ4pSyQBEvAhgQ3hvqdT/Oq+N4rue5l+AZ8gQ8p9b1GmzLxfHAI0AIrDlaWSAAn4gEBlmvvelnTfy9TjnchwF0Td957KlJn3i0+ABkDxGbMGEiABjxHYujL5tn8Ijt6NcCN/pt59Cxl0iv9GDPyrMmXmffsI0ACwjzVrIgEScDEBdd87DP76MxpDsh7d9zL1ZCsy3ALR0/fezJSZ90tDgAZAabizVhIgARcQUPe9neG+pxv69qX7XjY99gwy6dv+TAz8OuXP5GACNAAc3DlUjQRIoDQExobhvodBX2Pyt9B9L1Mn6Ca+lPvep5ky875zCNAAcE5fUBMSIIESEgj1c98zSqiLC6pWd70HIRqa9z687UddoDNV7EeABkA/IPyTBEjAXwQ2WOu+F5Ra7OpnGpbAZ7h7rQoGfQ3cw+RiAjQAXNx5VJ0ESCA/AhXqvoc1/emNYdmK7nuZIGoo3lkQXdt/EgO/hupl8gABGgAe6EQ2gQRIIDsCW8J9Tzf0qfteOd33MkFT9z0N1qPue3ooD5PHCNAA8FiHsjkkAAJ6XrotCZ5xjk91Qbjv1cN9DwP/+nTaz9Rfesyuuu9djUH/1UyZed/dBGgAuLv/qD0JDEagfbCLxbimu+W/7IoXo+gRlfk19z3E5Q9yaT8Tz+eQQTf03Y6B3zYDMpNSvF9cAjQAisuXpZNAKQi02VXpGBgATkot0Edd91TG0H0vU9csRoYbIBqa96NMmXnfewRoAHivT9kiErAt3OoW2ECnwd1LmUII1rO3nr6HCH27ImgPX/aH7Q1133sYom/792Lg7x02N296mgD/X/F097JxfiSQSCSa0W5bTljrwOz/Ae+1S2fM/o3h60dSp+8FpY5z/Jl+6l8gQ8p9b16mzLzvDwKcAfBHP7OVPiKAt7rFMAJ0GaC62M1WDzrdUT9rWU+xq7LKL0+57zWEZetKZy0/2AIgt0q6kX02RN/2H8Pvwn4rLTd9mdtmApwBsBk4qyMBOwjAAHgd9WxnR10rogk59sMOWdFbvM2AW8B9T3fxHwxjg277GXv1XeRQ973rMeivyJibGXxLgAaAb7ueDfcyARgA16N9p9rVxudWx+SbnxV283gtpvWn1ocsv/0N6L6XqSt1xuc2iJ6+90qmzLxPAkqABgB/ByTgQQIwAM5Bs/5pZ9NmL++Vn83tlmgi/5lmDF7rTt/Dxj5u5M/Ygy8ih0bouw3s1mTMzQwkkEaABkAaDH4lAa8QgAEwBW2x3bXrpbaY/GBOp6zCskAuqbnPfW8a3vjHhPnPUgZ2S3E/5b73QYa8vE0CQxLg/2lDouENEnA3ARgB6gmgHgG2pnZsBbh+cY/ctLRHOobxDlD3vb3wlj8Na/u719B9L0Mn6QaLRyG6oW823vbpvpcBGG9nJkADIDMj5iABVxKAAaBLALoUUJKkLoJvtMfktfaozEG0wNScwKQyU3aqDsp2VQFu6MvcM18iy3WQazDof5U5O3OQQPYEaABkz4o5ScBVBGAA7A+FH3OV0lRWCahP5T0QXdt/FAO/vv0zkUDBCdAAKDhSFkgCziAAAyAATeZDbF8GcAYB12nxPjTWKX5131vmOu2psOsIMJKG67qMCpNAdgQwiMSQ8+bscjNXiQjowU066O+G/toc8jsO/iXqCR9WyxkAH3Y6m+wfApgFWA+t/QSiswFMziHwMlTRKf5bMeDbdnqjc5pPTZxAgAaAE3qBOpBAEQnACLgdxR9bxCpYdHYEliPbjRAN1vPv7B5hLhIoHgEaAMVjy5JJwBEEYADsBEX0jZPJfgLq/KAbMXWafxYGfnsOTbC/nazRhQRoALiw06gyCeRKAEaAnto7PdfnmD9vAnPx5HUQdd+bg08mEnAcARoAjusSKkQChScAA2ADlKq7zMOFL50l9hHQ4Dz3QnRt/2EM/HTf6wPDD2cSoAHgzH6hViRQcAIwAq5Aod8teMEs8EMgSLnvLSEOEnALARoAbukp6kkCIyQAA6AKRbwNWX+ERfFxET36UDdXXo03/ecIhATcSIAGgBt7jTqTQJ4EYATshkefgdAtMD+Gr+ExneK/BQP/6vyK4FMk4AwCNACc0Q/UggRsIwAj4Geo7Ie2Vej+ilagCTdBrsKg/477m8MWkECSAA0A/hJIwGcEYAAE0eSHIPv7rOm5NFfd956E6Nv+XRj4u3N5mHlJwA0EaAC4oZeoIwkUmACMgFoU+RJk4wIX7fbi9OyE6yDqvve52xtD/UlgOAI0AIajw3sk4GECMAI2RPPUCGjwcDOzaVoUme6D6E7+BzHwx7J5iHlIwO0EaAC4vQepPwmMgACMgK3x+GOQxhEU49ZHP4bi10Cuw6C/2K2NoN4kkC8BGgD5kuNzJOARAjACtkRTHoeM9kiThmtGJ27OhOiGPvWGYCIB3xKgAeDbrmfDSWAdARgBm+Kv+yHrrbvqqW9voDW6oe9mDPyrPNUyNoYE8iRAAyBPcHyMBLxGAEaA7gW4A7KvR9rWinak3Pfe8kib2AwSIAESIAESKDwBGAFByJWQOMSNSfV+EnIKJFJ4QiyRBLxDgDMA3ulLtoQECkYAg6fGCNBd8ZMKVmhxC1qI4v8F0dC8nxa3KpZOAiRAAiRAAh4mACOgGvJXSBTixKR63QM5EqLBjZhIgARIgARIgAQKRQCD62aQ2RCnpE+hyP+DjClUG1kOCZAACZAACZDAEAQw4O4GmQUpxYxAJ+q9EbIPhEuXQ/QRL5MACZAACZBA0QhgAJ4A+SlkPqSYKYbCn4RcANHQxUwkQAIFJEBLuoAwWRQJ+IkABmX992MHyJGQIyAaUMiEjCTpyXsvQvSwopnY0LdoJIXxWRIggaEJ0AAYmg3vkAAJ5EAABkEVsm8D2Q6iIYbHQpr7pA6fcYjG2VdZA5kL+apPPsSnDvwfYtDXk/iYSIAESIAESIAESIAESIAESIAESIAESIAESIAESIAESIAESIAESIAESIAESIAESIAESIAESIAESIAESIAESIAESIAESIAESIAESIAESIAESIAESIAESIAESIAESIAESIAESIAESIAESIAESIAESIAESIAESIAESIAESIAESIAESIAESIAESIAESIAESIAESIAESIAESIAESIAESIAESIAESIAESIAESIAESIAESIAESIAESIAESIAESIAESIAESIAESIAESIAESIAESIAESIAESIAESIAESIAESIAESIAE/n87dCwAAAAAMMjfeg67CyEDBgwYMGDAgAEDBgwYMGDAgAEDBgwYMGDAgAEDBgwYMGDAgAEDBgwYMGDAgAEDBgwYMGDAgAEDBgwYMGDAgAEDBgwYMGDAgAEDBgwYMGDAgAEDBgwYMGDAgAEDBgwYMGDAgAEDBgwYMGDAgAEDBgwYMGDAgAEDBgwYMGDAgAEDBgwYMGDAgAEDBgwYMGDAgAEDBgwYMGDAgAEDBgwYMGDAgAEDBgwYuAMBtEeQiVINOkUAAAAASUVORK5CYII=;" vertex="1" parent="1">
          <mxGeometry x="524" y="380" width="80" height="80" as="geometry" />
        </mxCell>
        <mxCell id="EbPt4xti_P1VAYiJ_G2H-15" style="edgeStyle=orthogonalEdgeStyle;rounded=0;orthogonalLoop=1;jettySize=auto;html=1;entryX=0;entryY=0.5;entryDx=0;entryDy=0;entryPerimeter=0;strokeColor=#B3B3B3;" edge="1" parent="1" source="EbPt4xti_P1VAYiJ_G2H-13" target="EbPt4xti_P1VAYiJ_G2H-3">
          <mxGeometry relative="1" as="geometry" />
        </mxCell>
        <mxCell id="EbPt4xti_P1VAYiJ_G2H-13" value="Client" style="sketch=0;outlineConnect=0;fontColor=#232F3E;gradientColor=none;strokeColor=#232F3E;fillColor=#ffffff;dashed=0;verticalLabelPosition=bottom;verticalAlign=top;align=center;html=1;fontSize=12;fontStyle=0;aspect=fixed;shape=mxgraph.aws4.resourceIcon;resIcon=mxgraph.aws4.client;" vertex="1" parent="1">
          <mxGeometry x="223" y="230" width="80" height="80" as="geometry" />
        </mxCell>
        <mxCell id="EbPt4xti_P1VAYiJ_G2H-16" style="edgeStyle=orthogonalEdgeStyle;rounded=0;orthogonalLoop=1;jettySize=auto;html=1;strokeColor=#B3B3B3;" edge="1" parent="1" source="EbPt4xti_P1VAYiJ_G2H-14" target="EbPt4xti_P1VAYiJ_G2H-9">
          <mxGeometry relative="1" as="geometry" />
        </mxCell>
        <mxCell id="EbPt4xti_P1VAYiJ_G2H-18" style="edgeStyle=orthogonalEdgeStyle;rounded=0;orthogonalLoop=1;jettySize=auto;html=1;entryX=1;entryY=0.5;entryDx=0;entryDy=0;strokeColor=#B3B3B3;" edge="1" parent="1" source="EbPt4xti_P1VAYiJ_G2H-14" target="EbPt4xti_P1VAYiJ_G2H-17">
          <mxGeometry relative="1" as="geometry" />
        </mxCell>
        <mxCell id="EbPt4xti_P1VAYiJ_G2H-14" value="" style="shape=image;verticalLabelPosition=bottom;labelBackgroundColor=default;verticalAlign=top;aspect=fixed;imageAspect=0;image=data:image/png,iVBORw0KGgoAAAANSUhEUgAABLAAAASwCAMAAADc/0P9AAAAGXRFWHRTb2Z0d2FyZQBBZG9iZSBJbWFnZVJlYWR5ccllPAAAAyJpVFh0WE1MOmNvbS5hZG9iZS54bXAAAAAAADw/eHBhY2tldCBiZWdpbj0i77u/IiBpZD0iVzVNME1wQ2VoaUh6cmVTek5UY3prYzlkIj8+IDx4OnhtcG1ldGEgeG1sbnM6eD0iYWRvYmU6bnM6bWV0YS8iIHg6eG1wdGs9IkFkb2JlIFhNUCBDb3JlIDUuMC1jMDYwIDYxLjEzNDc3NywgMjAxMC8wMi8xMi0xNzozMjowMCAgICAgICAgIj4gPHJkZjpSREYgeG1sbnM6cmRmPSJodHRwOi8vd3d3LnczLm9yZy8xOTk5LzAyLzIyLXJkZi1zeW50YXgtbnMjIj4gPHJkZjpEZXNjcmlwdGlvbiByZGY6YWJvdXQ9IiIgeG1sbnM6eG1wPSJodHRwOi8vbnMuYWRvYmUuY29tL3hhcC8xLjAvIiB4bWxuczp4bXBNTT0iaHR0cDovL25zLmFkb2JlLmNvbS94YXAvMS4wL21tLyIgeG1sbnM6c3RSZWY9Imh0dHA6Ly9ucy5hZG9iZS5jb20veGFwLzEuMC9zVHlwZS9SZXNvdXJjZVJlZiMiIHhtcDpDcmVhdG9yVG9vbD0iQWRvYmUgUGhvdG9zaG9wIENTNSBNYWNpbnRvc2giIHhtcE1NOkluc3RhbmNlSUQ9InhtcC5paWQ6NkVEQTY0NDE2QTZFMTFFM0ExQzNBNjI0M0UxODYxRDUiIHhtcE1NOkRvY3VtZW50SUQ9InhtcC5kaWQ6NkVEQTY0NDI2QTZFMTFFM0ExQzNBNjI0M0UxODYxRDUiPiA8eG1wTU06RGVyaXZlZEZyb20gc3RSZWY6aW5zdGFuY2VJRD0ieG1wLmlpZDo2RURBNjQzRjZBNkUxMUUzQTFDM0E2MjQzRTE4NjFENSIgc3RSZWY6ZG9jdW1lbnRJRD0ieG1wLmRpZDo2RURBNjQ0MDZBNkUxMUUzQTFDM0E2MjQzRTE4NjFENSIvPiA8L3JkZjpEZXNjcmlwdGlvbj4gPC9yZGY6UkRGPiA8L3g6eG1wbWV0YT4gPD94cGFja2V0IGVuZD0iciI/PilpiMEAAAA2UExURf9KAP////9KAP9KAP9KAP9KAP9KAP9KAP9KAP9KAP9KAP9KAP9KAP9KAP9KAP9KAP9KAP9KAPt9SCoAAAARdFJOUwAAECAwQFBgcICPn6+/z9/v/i5wvwAALFxJREFUeNrt3dt628i1qNHCgdSxs97/MXe3KMkkDvvCdsd2Oy3JloCas8Z/sVaSLx1RhcIQCiyCY1e0ZWuGX2LsSumGUkoZPs+fvn/xn1mWz7//XEop81rKOm3xUs3vXI2GQC/XD6WMn1361Rnz1bTDd//p9FmyqZR5McwCln5Hqb4v45drqQ3m37yWqawzuwQsvbah74YyvmaV9+4/+e/5uCxlKvO6zA6HgKWfQzV0Q7eDUz9fP45f5FrndQaXgKUvHbqhG+qA6mdyHT7DNa/zenGwgKV2D3439v0Q4n20vh9LKWWdl2Xa5u1FAUvVXFT1/fiR99I/qu7zfJ3XaVlcbgFLTfR/ffBfYChjKWX5fw4lsJS/3q8hYEkSsCQJWJKAJUnAkgQsSQKWJAFLErAkCViSBCxJwJIkYEkSsCQBS5KAJUnAkgQsSQKWJAFLErAkCViSBCxJwJIkYEkSsCQBS5KAJUnAkgQsSQKWJAFLErAkCViSgCVJwJIkYEkCliQBS5KAJQlYkgQsSQKWJGBJErAkCViSgCVJwJIkYEkCliQBS5KAJQlYkgQsSQKWJGBJErAkCViSgCVJwJIkYEkCliQBSxKwJAlYkgQsScCSJGBJErAkAUuSgCVJwJIELEkCliQBSxKwJAlYkgQsScCSJGBJErAkAUuSgCVJwJIELEkCliQBSxKwJAlYkgQsScCSJGBJApYkAUuSgCUJWJIELEkCliRgSRKwJCkKWGtNv/xkAmRvTXjO1jRtO1dYWzXcjo+fnNEK1tXt9Di7wmqu421XbguxFM2rMv7xeAZWW/U3x1IKsRTPq1K6u8PTAqyWfu3b4fO/IJbCeVVKOQ6Pbd6AbROs65u//yWxFM+rUoY/np6B1chy8Pbwzb8jluJ5VUq5GR8bXBY2CNZ413/374mlgF6Vcvjj1N6ysD2wbq5//E+IpYBeldL/8fwErOTLwbuf/MbEUkCvSinX46mxZWFjYB3ufrozl1iK6FUp439OF2Cl7Zt3B4ml+F6V0t239W5hS2B9/+4gsRTfq9Lau4UNgfXju4PEUgKvGnu3cHTMiaXYc7f/o51P8bcC1pfPDhJL+f7WlnI7tvLZwkbAGu6Gl/9LxFJMr0o5Dqc2HjnTBljH21c9Z4xYiulVKUMjj5xpAqx/bm4nllJ5VUp3N7Sw7b0BsP5tNwOxlMOrUsr10MD+hvxg/ftuBmIpiVdt7G9ID9bVzdsek08sBfWqlP7+KfvszQ7W7dWb/wliKaZXpXS3wyOw4vaW21fEUnSvSilXfe4bWanB+vvJ7cRSG16VcrhP/bT3zGC9cvcVsZTHq1KG+8w7shKD9T+fJUMs5fWqlO6uz/vEmbxg3R1/4x8mlqJ6VUq5GU7AilV/P/zWP08shfWqlOPwkPTWe1Kw3rZblFhK5VUpQ9Y9pDnB+uXb7cRSBq9K6ZPeek8J1m/cbieWMniV9tZ7RrB+63Y7sZTBq5L01ns+sH76zYPEUmtelXLs831rYTqwXvVsUWIpv1eljPfpnkOaDazxvnvP/zliKa5XpQx/PCR7szAZWG99mAyxlNirUrpsD5wZHW5iKe8E7pJN4FRgvdfbg8RSlj+4pdyOmd4sTATWK756kFhqzatSjiXRlxbmAet3Pz1ILKX0KtcnC9OA9a7bGYilPF6VMuR5qF8WsN55OwOxlMerUob7LNsbkoD1sV4RS6G9KqW7P12A1crRJpaiz+Du/jHFDB4dbWLJDAbWdt1cb/FTiKXIXiXZkJUArLvjNj+HWIrsVSnHEl+s+GBt5RWxFNurFFtIo4P1jk+/IpZye5VhC2lwsD5uezuxlM6rUob74GLFBmtjr4il2F7FFys0WB/5cRxiKaFXpQz/Cb3pPTJYH729nVhK51UpXeiP6QQGaxeviKXYXgUXKy5YO3lFLMX2KrZYYcHazStiKbZXpXRxvxY6KliHu26/H04sRfaqlO6uCzqFRwebWDKFgZX4YBNLpjCw4hxsYskUBlacg00smcLAinOwiSVTGFhxDjaxZAoDK87BJpZMYWDFOdjEkikMrDgHm1gyhYEV52ATS6YwsOIcbGLJFAZWnINNLJnCwIpzsIklUxhYcQ42sWQKAyvOwSaWTGFgxTnYxJIpDKzvOt5W/fKIpdBelXK7XID1fq/ytvIXSCyF9qqUuxjPeQ8B1o7PbyeWmvAqyjdTRAArgFfEUmyvoogVAKwQXhFLsb0KIlb9YPUxvCKWYntVSnf/5wKsVrwilmJ7VUp3/1C7WLWD1d8PcWYmsRTZq1KG6sWqHKxQXhFLsb0KIFblYN0MsWYnsRTZq1KGmxOwfrm7Y7T5SSxF9qqUY6larKrBiucVsRTbq9rFqhmsq2PEOUosRfaqlONU8QweHW1iyQyOMoPrBet4G3WeEkuRvar60Q3VgjXexp2pxFJkr2p+dEOtYI1xNrgTS8m8qvhjhZWC1d92oWcrsXgV+uV3t5VuIK0TrGAb3ImlXF7Vu+W9TrBuh/Azlli8ii3W7QOwXtndIcGcJRavQne4q3EDaY1gXR9TzFpi8Sp0x/kZWK853DdJ5i2xeBW6m7W+CVwfWONtmplLLF7FnsBzdZsbqgNrvE80d4nFq9DVtx2rNrCib8AiFq8SVd92rNrAuh9yzV9i8Spyw/2fwPqX7oZsM5hYvAotVmWbG+oC6+aYbw4Ti1eROy5PwPpfx/s64ywmFq8id73UNH9rAmu8yTmPicWryN3UtLmhIrD6+y7pTCYWrwJX1RdC1wNWXq+IxavgYtWzuaEesG6GxLOZWLwKXEVfVlgNWBnfICQWr3JUz1uFtYCV8w1CYvEqR9W8VVgJWFnfICQWr3JUy1uFdYDV33X5ZzWxeBW37u6vKm681wHWXd/CvCYWr+LW3/0FrK9ejW3MbGLxKm7j7SOwPh/xYytzm1i8CvybzhXM3grAGm/bmd3E4lXg2VvBjff9wervW5rfxOJV3Cr4jM7+YLXwBiGxeJWhbv8b77uDdTs2NseJxauw7X/jfW8urq6am+XE4lXcX3nvG+87g9XADndi8SpRe+943xesZN+RQyxeZW/v79HZF6zboc25TixeRW24fWgWrOtDq7OdWLyK2uH6uVGwDjftzndi8SpqN/OlSbD6u5ZnPLF4FbW7HfeP7gjWXdf0nCcWr4K25/7R/cC6GRuf9cTiVdDGm92emLybGsfr5uc9sXgVtOv53BhYg4NOLF7Fnbrz3BZYjd/AIhavQtfd/dkUWK3uGCUWr3I07PQx6H3AOlw54sTiVeiRuOyyG2sXsNregUUsXmVon91Yu4DlBhaxeBW9fXZj7QFW8zuwiMWrBO2yG2sHOw52YBGLVwm6nra/jbU9WL3DTixe5Zi4238b9PZg3fYONLF4laF++2djbQ5Wu8/AIhavsnW43nrebg3W4AYWsXiVputp44/obA3WrR0NxOJVmrrbjfc2bAwWrojFq1xkrZnBWh/ufYqQWLzK0vywrVebLwmJRSxe8SoMWGUhFrF4lcWrZeubPNvvwyIWsXiVxavNf+YOH80hFrF4xaswYBGLWLziVRywiEUsXvEqDljEIhaveBUHLGIRi1e8igMWsYjFK17FAYtYxOIVr+KARSxi8YpXccAiFrF4xas4YBGLWLziVRywiEUsXvEqDljEIhaveBUHLGIRi1e8igMWsYjFK17FAYtYxOIVr+KARSxi8YpXccAiFrF4xas4YBGLWLziVRywiEUsXvEqDljEIhaveBUHLGIRi1e8igMWsYjFK17FAYtYxOIVr+KARSxi8YpXccAiFrF4xas4YBGLWLziVRywiEUsXvEqDljEIhaveBUHLGIRi1e8igMWsYjFK17FAYtYxOIVr+KARSxi8YpXccAiFrF4xas4YBGLWLziVRywiEUsXvEqDljEIhaveBUHLGIRi1e8igMWsYjFK17FAYtYxOIVr+KARSxi8YpXccAiFrF4xas4YBGLWLziVRywiEUsXvEqDljEIhaveBUHLGIRi1e8igMWsYjFK17FAYtYxOIVr+KARSxi8YpXccAiFrF4xas4YBGLWLziVRywiEUsXvEqDljEIhaveBUHLGIRi1e8igMWsYjFK17FAYtYxOIVr+KARSxi8ap5rwKBRSxi8ap1ryKBRSxi8apxr0KBRSxi8aptr2KBRSxi8appr4KBRSxi8aplr6KBRSxi8aphr8KBRSxi8apdr+KBRSxi8apZrwKCRSxi8apVryKCRSxi8apRr0KCRSxi8apNr2KCRSxi8apJr4KCRSxi8apFr6KCRSxi8apBr8KCRSxi8ao9r+KCRSxi8ao5rwKDRSxi8ao1ryKDRSxi8aoxr0KDRSxi8aotr2KDRSxi8aopr4KDRSxi8aolr6KDRSxi8aohr8KDRSxi8aodr+KDRSxi8aoZrxKARSxi8aoVrzKARSxi8aoRr1KARSxi8aoNr3KARSxi8aoJr5KARSxi8aoFr7KARSxi8aoBr9KARazmxeJVA17lAYtYjYvFqxa8SgQWsZoWi1dNeJUJLGI1LBav2vAqFVjEalYsXjXiVS6wiNWoWLxqxatkYBGrSbF41YxX2cAiVoNi8aodr9KBRazmxOJVQ17lA4tYjYnFq5a8SggWsZoSi1dNeZURLGI1JBav2vIqJVjEakYsXjXmVRlXYhGLV7z6xX70o3OFRaz3FotXvLIkJBax/CK8AhaxJF4lB4tY4hWwiCXxCljEknjVMljEEq+ARSyJV8AilsSrlsEilngFLGJJvAIWsSRetQwWscQrYBFL4hWwiCXxqmWwiCVeAYtYEq+ARSyJVy2DRSzxCljEkngFLGJJvGoZLGKJV8AilsQrYBFL4lXLYBFLvAIWsSReAYtYEq9aBotY4hWwiCXxCljEknjVMljEEq+ARSyJV8AilsSrlsEilngFLGJJvAIWsSRetQwWscQrYBFL4hWwiCW17lXbYBFLvAIWsSReAYtY4hWwiCXxCljEkngFLGKJV8AilsQrYBFL4hWwiCVeAYtYEq+ARSyJV8AilngFLGJJvAIWsSReAYtY4hWwiCXxCljEkngFLGKJV8AilsQrYBFL4hWwiCVeAYtYEq+ARSyJV8AilngFLGJJvAIWscQrAYtY4hWwiCXxCljEEq8ELGKJV8AilsQrYBFLvAKWiCVeAYtYEq+ARSzxClgilngFLGJJvAIWscQrYIlY4hWwiCXxCljEEq+AJWKJV8AilsQrYBFLvAIWsYglXgGLWOKVgEUs8QpYxJJ4BSxiiVcCFrHEK2ARS+IVsIglXglYxBKvgEUsfR2bf56BfW9YeAUsYtWg0zqXss6llGV+4b889KWUoStl6BjGK2ARa5vWuczrOr8s1I+n51xKuXzr19B1Qxk6XglYxHr/y6llWZa3MvVvfl2+0vU5XglYxHoHqeZ1WqePO3O/GDh2Yzc04xavgEWs9z6plnleL1v9tOnzJdehG4Y+/9DyCljEerfWeVrmaZcf/RnIcejHxLe3eAUsYr3TrzXP07vdqfr1y62plDL04zBkXCPyCljEepfrqnmq6FSa50sp/Thku9biFbCI9ds4TDutAV8a5HMpZRzGIc9Q8wpYxPqt9VdVF1Y/fYWfSj8OY4bZyitgEes3KJguQcb6XEo5jNHR4hWwiPWL5850uQR7yZdLKYfDGHjMeQUsYv3C654uU9BT53Ip/XgYQ759yCtgEevt68DLNMUe9PO5jOMh3OTlFbCI1cyl1Q/qTs/RLrR4BSxivemMmc5TppE/n8t4DHNHi1fAItYbzpfzZc43+NNUhsMxxPjzCljEemWXKaNWXySYn4fDeOAVsJRCrOl8SX6yzHPpD8eaJzOvgEWsdleCPzkEnz5VvDbkFbCI9ZqzuA2tvlkbXtX4viGvgEWsl1rPqd4TfK1Z4/FY29MdeAUsYr3Q9Onc5oGYpsfjVVXzmlfAItZLr+avhg/F+fx/FS0MeQUsYr3Upe1jcbniFbAUR6xPbR+KT9WAxStgEevl02Ru+0jMcy0HglfAItaLnVs/EucbXgFLUcQCVhVg8QpYxHpFl+bPk+VSwYcLeQUsYr0KLMehArB4BSxiASvKEPAKWMR6VWdnSlnOR14BSxHEcoFVSrnsCxavgEWs17WeHYJSzrd7fgaaV8AilgusKJdYvAIWsYAVBSxeAYtYVoRR1oS8AhaxXGBFucTiFbCI9fomY78rWLwCFrFcYUWRm1fAItZbvHK+fB3/PT6ewytgEcsF1q8NxfZg8QpYxAJWlKHgFbCCi3W78V/52Rnz39Hf+rmjvAJWeLHutn2vyiasbwdj28f48QpY8TuVTcWyqeHbNeGmYPEKWMR66xUdsL5bH2/4/YS8Ahax3nxNYbi/G47tvu6LV5uCddUbjI+77Fk3+1SbC6zvh+Mq449q8Az69CNYN51RyZB77t8Px91mP4pXH9k/wOJVjiWQIfhhQA7GIEPD/D1Y7mUlWQIZgh8GBFgp6n8AywWWK6ycA3JjDDI0Xr4Hyy33FC2zMfi+TTc26OOusAqwrAibuMRyMxxYsiIMYziwMjQAyxWWIVGUun4BVro8qeGfbf7EBn3MJRawXE20MSjAylD/3ZKQV8DKmrvuCcHyRyhFPpfzM7AMQYbG7/6ffaMusPIOi49xJKhzhQUsYClKw3dgKUO2uXM8sVjzP1eGcmZyXFXWz6RKdmLahfXT7MTKcYV1+QYsR9QFVuKBMb0T1H27FvQuIbASD4ydWAkav/m//gKlWBIaAgPTBls2uifIs7D+J1ieiZXsCsuK0HVE6jXh0RikYsuSMMNZaQhYnrnDpdjW4Kw0NIpR9+PCUKHzIV9Dk7oBVVaErQyOeZ7qCss9LMue3IMDrFRXWN4lBJbBUYDGUmzDck4aHMWwarQiTJJ7WAanFbXklMw+PCZ6/A6Xby+zZNGTeHjMcVdYApbh0WYNFzfd0+ThfYYne10BVpps5jY82eu/gmUbliVP+gHyVngesBxLS570A2SS51kSyhVW+gE6GIPoDV/Aghaw0mefWo7G4hYWsKyZFUKrydUVsAyQgtRZElrwNDNEpnkWsBS+1RBYE+Zv+AyWfaMWPMBSiIAFLEOkGPWWhJaErrAUDCxohc9H5V7M+xJploRy9dDCILn1Eb3PN90dR2ABSwH6vK3Bp0LD54byawbJasKSUFXknrtBaoOryZLQFVYjueueYU0ILBcPkiWhNsyuBoPURL2b7pJCgeVxWNFzd+Z1w2Q5YUkoSVuCZUnoCssVlmJwZUkoyZJQ22UblmFq6hpLsbMNyzC1UV9GK8L4+eyzYWoHLFnrGCaFWRJ6k1BSGLAsCaNnV8NrB8p6Ivya0CGUFKVh9LCG8LmZbKAaWhICy3looBQGLEkCllw4GCi9a72d7s5DA6VAYEmSJaE2ymfkDFQ7YHmTMHw2jhqodsDyyRxJloSS9M5eASt8HkLw+qGynggvls8+R8+tZEPVEFj+5kgKA5YhkAQsbZT924YKWHIWGirVB5Z7WJKCNHiXUFKUOktCSXGWhIZAErC0UXa6G6qGwHIPK3q2bxuqhsDyLqEkS0JJApYkYEkSsCQJWJKAJUnAkiRgSQKWJAFLkoAlCViSBCxJApYkYEkSsCQJWJKAJUnAkiRgSQKWJAFLkoAlCVjaK1+Fa6iApTD5KlxDBSxJApYkAUtS9tZxtq6XFKN5XA1C8HpDYKgsCeUsNFQCliQBSxKwVHm2bxsqYClM3uY1VA2BNSNLUowm2xokWRJqu2M4GQMrQmApSG4lvzLbsIAlSduB5R6WCwcDpSCt42wQnIcGSjGyqUFSoCWhIXDhYKAELDkPDZTeG6zFGEiK0eymu6tkA6UoLY6hJH90tF2Dy+RXDZMhyADW4lZk9HpgvWqYDEH4FSGwMuTDhIapHbBkrWOYFGZJKElhwPLpHH91DJNCNJWxeFyDJH915CAaJr33QfTZHEkhWoCVosPFGLw8SIYgBViKnx1GamZJ6KZ7/OwwetVUV/TWMhbfEeUKyyApRJM/O66wDJJCXSev/vREz8dBDVIbK8Iy+iIK56JBUohmdyKTZF/Da9YSSnEYbcSKn1W9C6wGWoCVJDeUDVEzYMnZ6ApLYZaEnq/rbDRECtDnm+62urvCauNPs4K3AivN6egDC0hvBCxT3YLHAClAkwtlFxBWhAp2HGezHVgGSLU3fwHLTSwrHgOk6lu/gGXnqAsIA6TqW4CVJ58m/PfhMQR5wLIkzHAFASwrwkaWhLa6OyOtCFV9X2+6yxlpeBSisZRiMZHkQMrwZO7iQGY6JX1igVeNHMnJ8Uyw6AGWFWHqJn96nJMGR66wZNUDLL1zs2nunKS5orT+9wrLYCTIXvf/PTSGwBWWarvEAparzzausMx0yx5gqfIuZrmzkuUKeCi9TZigfvCh0P9BuQ9aJmj6BizPa0jxxwdYrj3buMKavY3ivLQiVJQrLI/wc14aGFXdCqxsV1i94/izepeeGZqBle5K4mwMLJWztnwDlru1wLIiVJgrLF9N6Mw0LKrfq68HcwFWhrWPm1jAytr63cG0r8GaMGumdoqm76+wDAiwgKV6W4Bl8WNQFBMsbxOmyE2sf2YXVo5+uOm+doYkw/LnkzFwgZWx9fsrrDI7rinOTmABK/MFFrCcndkvOg1BhpYfZrh7HynqfZ3qD3kWVk6w3HVPcokFLBdYGZtcYVkTGhC5wpILCgOid+7Hm+7l0Vr/A7vabNfI0Wb374Zjs5+0eoN2gwus/4JluD+wu+12ufl0zk4rwq4/Ge5Sug/+37XE38Kr7f7OWwLtNhzHQqxMf4F4tUk2NnzbppsaiAUsXr39iAJrr+tNYgGLV28+a56N+V4LZGIBi1dvXQX5Auhv1scb/0BiAYtXbz2kwNrpAotYwOLV289SO1T2A4tYwOLVG89ST/H7uiLcY48HsYDFK5dYcSY3sYDFK2DFWBESC1i8siYMBRaxPhKsrZ/lvvLKJdZGbuz2PQUNibX1GLvCyucVsPa9wHKNBSxeWRNGAotYwIpUf3Pc91R1ibXnipBYwIrl1f3OX94JrLL7g3aIBSxeWRO+/igcd34BxAIWr1xiBbnAIhaweAWsSGARC1i8euXZ2vwzZvoanhV97E/W5sDi1SvEah2sYx2n1/0DsYDFq5fP19afO1oHWGUgFrB49YoTpfFHuw/VHAhiAYtXr7jCaBusq3roJBawePUyWI9NH4uKvp6RWMDi1Yt19+d2vwP6eNVX9GqIBSxevXyNcbi5nFtcF47HfT9FSCxg8eqXXtLV1Xy+tLW/YThUdXFFLGDx6i1nys3N/OnSysnSH49Dna+MWMDi1SvPldtyuTRgVn84HOp9dcQCFq9e2+GQ3axhrFkrYgGLV282a7okvZ81HI5DgFdJLGDx6i2HeryZL5ds7xuOx3GI8UqJBSxevfGcGa6X6ZJmf1Y/HsY+zsslFrB49eaXezzeXaYEi8NxHA/BXjKxgMWrX+hwuFmmyxT35Al2aUUsYPHqty+0ynyZLgFf+uEwDlGnC7GAxatfPnuGUqYpFFqHcYw9Y4kFLF79zvEfS5mmaa7/LOrHYUwwW4kFLF79PlrzNE/13ogfh3EYkkwaYgGLV++yPFznCi+1+nEYhy7TtCEWsHj1HnXjWMoyz7WoNfTjMPT5Jg6xgMWrd/u1+kMp6zwt85574sehT3ZdRSxg8epDr7XKvMzzsjVbh24Y+iH55CEWsHj1/qfVcCilLMu8zOvHuzV2Yzf0fRvTh1jA4tVHrRHHUkpZPvf+7yQO/efamkDEAhavPtatz/9/ncu8rnP5TbqGvgxdN5S8N6qIBSxe7V83/j1nlqWscynrXMrLfg19KWXoShm60trlFLGAxas6Lrp+eGDCvP5TOINFLGDxqs6T0BAQC1i8ErEELF6JWMDilUQsYPFKxAKWeCViAYtXErGAxSsRC1jilYgFLF5JxAIWr0QsYIlXIhaweCURC1i8ErGAJV6JWMDilUQsYPFKxAIWryRiAYtXErGAxSsRC1i8kogFLF5JxAIWr0QsYPFKIhaweCViCVi8ErGAxSuJWMDilYglYPFKxAIWryRiAYtXIpaAxSsRC1i8kogFLF6JWMASr0QsYPFKIhaweCViAYtXBkHEAhavJGIBi1ciFrB4JRELWLySiAUsXolYwOKVRCxg8UoiFrB4JWIBi1cSsYDFK4lYwOKViAUsXknEAhavJGIBi1ciFrB4JRELWLySiAUsXolYwOKVRCxg8UoiFrB4JWIBi1cSsYDFK4lYzYLFKxELWLySiAUsXknEahMsXolYwOKVRCxg8UoiVptg8UrEAhavJGIBi1cSsdoEi1ciFrB4JRELWLySiNUmWLwSsYDFK4lYwOKVRKw2weKViAUsXknEAhavJGK1CRavRCxg8UoiFrB4JRGrTbB4JWIBi1cSsYDFK4lYbYLFKxELWLySiAUsXknEahMsXolYwOKVRCxg8UoiVptg8UrEAhav4vd46xchFrB4FeQ0/5TlPP9UiNWaWDnB4tW/eZXndyFWc2KlBItXbXhFrPbEyggWr1rxiljNiZUQLF614xWxWhMrH1i8askrYjUmVjqweNWWV8RqS6xsYPGqNa+I1ZRYycDiVXteEaslsXKBxasWvSJWQ2KlAotXbXpFrHbEygQWr1r1iljNiJUILF616xWxWhErD1i8atkrYjUiVhqweNW2V8RqQ6wsYPGqda+I1YRYScDiFa+I1YJYOcDiFa+I1YRYKcDiFa+I1YZYGcDiFa+I1YhYCcDiFa+I1YpY8cHiFa+I1YxY4cHiFa+I1Y5Y0cHiFa+I1ZBYwcHiFa+I1ZJYscHiFa+I1ZRYocHiFa+I1ZZYkcHiFa+I1ZhYgcHiFa+I1ZpYccHiFa+I1ZxYYcHiFa+I1Z5YUcHiFa+I1aBYQcHiFa+I1aJYMcHiFa+I1aRYIcHiFa+I1aZYEcHiFa+I1ahYAcHiFa+I1apY8cDiFa+I1axY4cDiFa+I1a5Y0cDiFa+I1bBYwcDiFa+I1bJYscDiFa+I1bRYocDiFa+I1bZYkcDiFa+I1bhYgcDiFa+I1bpYccDiFa+I1bxYYcDiFa+IRawoYPGKV8QiVhSweMUrYhErCli84hWxiBUFLF7xiljEigIWr3hFLGJFAYtXvCIWsaKAxSteEYtYUcDiFa+IRawoYPGKV8QiVhSweMUrYhErCli84hWxiBUFLF7xiljEigIWr3hFLGJFAYtXvCIWsaKAxSteEYtYUcDiFa+IRawoYPGKV8QiVhSweMUrYhErCli84hWxiBUFLF7xiljEigIWr3hFLGJFAYtXvCIWsaKAxSteEYtYUcDiFa+IRawoYPGKV8QiVhSweMUrYhErCli84hWxiBUFLF7xiljEigIWr3hFLGJFAYtXvCIWsaKAxSteEYtYUcDiFa+IRawoYPGKV8QiVhSweMUrYhErCli84hWxiBUFLF7xiljEigIWr3hFLGJFAYtXvCIWsaKAxSteEYtYUcDiFa+IRawoYPGKV8QiVhSweMUrYhErCli84hWxiBUFLF7xiljEigIWr3hFLGJFAYtXvCIWsaKAxSteEYtYUcDiFa+IRawoYPGKV8QiVhSweMUrYhErCli84hWxiBUFLF7xiljEigIWr3hFLGJFAYtXvCIWsaKAxSteEYtYUcDiFa+IlUesNTlYHa94RSxiBQGLV7wiFrHCgLU6xLwiVqZyX2GVx/vOMeYVsbJw9bjxD9warPn5xlHmFbGS9DwnB6s8jweHmVfEStHleesF0/b7sB7/6B1oXhErQcvj5j9y3OGXvHekeUWsDBO3hZ3u5fJ87VDziljhe75s/zP3+PDz0zg62LwiVvCmpx1+6C50nP5jbwOviBW79bTHT90FrOXkNhaviBW7UzsP8CuXT1cOOK+IFXkkLrv82J3uJj2OPlPIK2LFbX7c5+fudfv79IfbWLwiVtT2uYG1I1jz452jzitiRZ26804/eLcNBueh+d1YvCJW0J7Pe/3k/XZENb8bi1fECtouO7D2Bqv13Vi8IlbQdruBtS9Ybe/G4hWxonZa9vvZey7LLk/tPhuLV8SK2tNlxx++632kdp+NxStiRe3yvOdP3/fG92Oj30nBK2JFba8do1WAtbT5iHdeEStq6+Oy68/feWvB9NTgQecVscL2NO378/feC/VpaO5j0LwiVtxfee/Ju/vmzcehsf2jvCJW2KbHvV/B/lqc2vpSCl4RK2x77hitBqzl1NKNd14RK24Py+4voYL1WEs33nlFrMCzd9r/NdRwA6mdG++8Ilbg37SG2VvFHe9Wbrzzilhx2/+GezVgNXLjnVfEittyquJljJUMRgM33nlFrLitp6WK11HJWmzK/8RkXhEr8vSd6ngdtdw8Sv/EZF4RK3D7PRO5UrDKU3/klYhVZeenWl5JPW/PPQ2JHzXDK2IFbq7Gq4rAWh7yPuOdV8QK3PqwVPNaKtoAtTxkfauQV8TiVTqw0n5Gh1fEitzTVNGLqWqL+acu47dS8IpYkXuuav7W9ZmY5yHfW4W8Ilbk6nmDsEKwyindW4W8Ilbk5lNdr6e2Tx0/JPseHV4RK7RXD5W9oNrASvY9OrwiVuT2/o6c+sEqU6bNDbwiVugeptpeUX0Pokq0uYFXxIo9gavzqkKw8mxu4BWxQvdU4QSu8VGfSTY38IpYoTs/V/iiqnw28akkEItXxArd5VTjq6rzYeoJntzAK2KFbn6s8mXVCdYSfjsWr4gV26uHpcrXVenX1UTfjsUrYoUWq74NWHWDFXw7Fq8UWqy1vg1YlYNVptM9r0SsXTrV6lW9YJXLY9TjzSvFFuvxUu1LGx1vXskMjjKDa/6O+E/DlaMtYm3cueYZPFZ97nfxNpDySrHFOp9qfnVVgxVwyzuvFFusur2qHKxwTyDllWKLNT/V/foqByvYE0h5pdhi1brBPQxYoT6kwyvFFqt6r6oHK5JYvFJssdbqvaofrDgfK+SVYosVwKsAYEX5WCGvFFusej9AGAusGGLxSrHFCuFVCLAiiMUrxRYrhlcxwKpfLF4puFinEF4FAav27/7ilYKLVfEDGiKCVffh5pVMYWBFOdy8kikMrCiHm1cyhYEV5XDzSqYwsKIcbl7JFAZWlMPNK5nCwIpyuHklUxhYUQ43r2QKAyvK4eaVTGFgRTncvJIpDKwoh5tXMoWBFeVw80qmMLCiHG5eyRQGVpTDzSuZwsCKcrh5JVMYWK8/3Ott52CLWK1N4aBglfOy4zNIeaXYYq2nS9BRiwrWnk9N5pViixXk+e2pwNpPLF4ptliBvQoM1l5i8UqxxYrsVWSwyvRwu/232PNKscVaToG9Cg1WmR7utxaLV4ot1hzg++izglWWrcXilWKLFdyr4GCV5eFuy9+AV4otVnSvooNVlr/ujrwSsV7V+Sm4V+HBKuVUthKLV4ot1vkUfrDig1VO6xWvRKwWvMoAVnmctzjevFJssVLM4NHx5pXMYGBterznj970ziuFFivux50zgvXhH9PhlUKLFfrjOAnBKtNfdx+4hZRXCi3W/JjEqzRglfkDN73zSqHFCr9dNCFYZXm4+aANWbxSaLHibxfNCFZZPmgLKa8UWqwM268yglXKafqAA84rhRbr6TnTEI3JDvjNe79ZyCtFFmt9yjWBx2QH/L03ZPFKkcVKs50hKVjvvb2BV4os1nyak41PNrDK/J5PyOKVIos1nZZsw5MOrPd8QhavFFmsVG8PpgWrlNN8wys1L1autwcTg1Wel/f4InteKbBY6+M549ikBKucl7ueV2pYrHRvD6YGq0x//e4nC3mlwGIl+vRgE2CV5c/fu/XOKwUWK9OnB9sA6zdvvfNKgcVKebs9O1i/c+udV4orVtLb7enBKufl9tduZPFKccXK87C+1sAq08PtgVdqSqyEu9ubAassD7dv/85CXimuWJ8ec4/JmPyYP85vfeAMrxRWrGwPk6kArG7jn3ee37aH9PHcOVGClP9Ind8m1nKas4/JmP6Yz3+95UZW5jdYlFys6bSmH5D8YJX1dH39+vWg6ysFXRV+empgPMYWDvrz/ModWe5fKapY6+OlheFoAqxyeXjVjixeKapY8+PcxGi0AVaZX/OlhbxSVLHOT2sbg9EIWGV9fPErwHilqGI9NTN3x2aO+kv7G3iloGItp7mZoWgHrBf2N/BKQcVqYTdDi2D96/4GXimoWM/PLQ3E2NRhf57uOl4pkVjraWpqHNoCq0x//vRbC3mlmGI1tRxsEKyy/nVzzSslEev5qbVPZozNHfen6bbnlRKItZ4uzQ1Ce2CVyw/vFvJKIcW6PC7tjUGDYJXl4fqGVwou1tNzi0MwNnngn6e/P1vIK0UUa2ns3cG2wSrT188W8koRxcr7xYPA+vmy8HS57XilkGKt7T5ncmz2yJ/n25FXCijW9Dg3++u3C1aZ/xon81/hxJpbnrbNgfXtRrvZ85AVaL6atk1fYUkCliQBSxKwJAlYkgQsScCSJGBJErAkAUuSgCVJwJIELEkCliQBSxKwJAlYkgQsScCSJGBJErAkAUuSgCVJwJIELEkCliQBSxKwJAlYkgQsScCSJGBJApYkAUuSgCUJWJIELEkCliRgSRKwJAlYkoAlScCSJGBJApYkAUuSgCUJWJIELEkCliRgSRKwJAlYkoAlScCSJGBJApYkAUuSgCUJWJIELEnAkiRgSRKwJAFLkoAlScCSBCxJApYkAUsSsCQJWJIELEnAkiRgSRKwJAFLkoAlScCSBCxJApYkAUsSsCQJWJIELEnAkiRgSRKwJAFLkoAlCViSBCxJApYkYEkSsCQJWJKAJUnAkiRgSQKWJAFL+7X0OX4NRxJYaqA/y9j3Yx+XrWWZlmVyIIGlNvp8sg/90PdDF+h1r/OyzMvsAAJL7TXPl7KWcuiGvq/8emtZlmVeL6V0Dhuw1HSXL1OhG7qhq+yCa53XeZ1Xyz8BSz8sEy9fFordUMayq1zrXKYyrxZ/ApZeWih++Rf9UIaujKUbtvrJa5nKOpfZ+38Clt7YsnxdLZZ+KGUsZejee8ZMpaxzKVOhlICl97Prb7xKKWNXvlx3fVk4vuKW/bJ8Xex9vpYqbkwJWHpjv3Snai7lO8A2/NFqu/8PN4EOWW6s5hIAAAAASUVORK5CYII=;" vertex="1" parent="1">
          <mxGeometry x="368" y="380" width="80" height="80" as="geometry" />
        </mxCell>
        <mxCell id="EbPt4xti_P1VAYiJ_G2H-17" value="" style="shape=image;html=1;verticalAlign=top;verticalLabelPosition=bottom;labelBackgroundColor=#ffffff;imageAspect=0;aspect=fixed;image=https://cdn2.iconfinder.com/data/icons/social-media-2285/512/1_Slack_colored_svg-128.png" vertex="1" parent="1">
          <mxGeometry x="223" y="380" width="80" height="80" as="geometry" />
        </mxCell>
      </root>
    </mxGraphModel>
  </diagram>
</mxfile>
